<?xml version="1.0" encoding="UTF-8" standalone="no"?>
<svg
   xmlns:dc="http://purl.org/dc/elements/1.1/"
   xmlns:cc="http://creativecommons.org/ns#"
   xmlns:rdf="http://www.w3.org/1999/02/22-rdf-syntax-ns#"
   xmlns:svg="http://www.w3.org/2000/svg"
   xmlns="http://www.w3.org/2000/svg"
   viewBox="0 0 1496 1496"
   height="1496"
   width="1496"
   xml:space="preserve"
   id="svg2"
   version="1.1"><metadata
     id="metadata8"><rdf:RDF><cc:Work
         rdf:about=""><dc:format>image/svg+xml</dc:format><dc:type
           rdf:resource="http://purl.org/dc/dcmitype/StillImage" /></cc:Work></rdf:RDF></metadata><defs
     id="defs6" /><g
     transform="matrix(1.3333333,0,0,-1.3333333,0,1496)"
     id="g10"><g
       transform="scale(0.1)"
       id="g12"><path
         id="path14"
         style="fill:#ffffff;fill-opacity:1;fill-rule:nonzero;stroke:none"
         d="M 11220,0 H -0.0117188 V 11220 H 11220 V 0" /><path
         id="path16"
         style="fill:#d3e4ea;fill-opacity:1;fill-rule:nonzero;stroke:none"
         d="m 748.32,3157.05 c -130.168,-183.9 -110.754,-431.48 -75.808,-654.06 28.301,-180.22 76.406,-379.8 230.672,-477.18 95.578,-60.34 213.906,-68.56 326.756,-74.82 2866.02,-158.99 5742.14,-135.79 8605.22,69.4 122.89,8.81 249.24,18.85 359.84,72.97 139.5,68.18 237.7,198.3 318.3,330.9 108.8,178.88 197.9,391.17 143.9,593.45 -57.1,213.74 -264.5,359.93 -479.7,411.4 -215.15,51.46 -440.16,26.13 -660.41,5.47 -537.57,-50.44 -1077.42,-71.26 -1616.95,-92.06 -588.41,-22.68 -1176.82,-45.37 -1765.23,-68.05 -1510.31,-58.23 -3038.73,-126.66 -4537.74,99.76 -284.76,43.01 -663.615,44.54 -848.85,-217.18" /><path
         id="path18"
         style="fill:#ebefeb;fill-opacity:1;fill-rule:nonzero;stroke:none"
         d="m 5547.7,6208.59 c -9.97,0.69 -35.04,-0.02 -43.62,6 -15.79,11.1 -5.43,43.78 -7.83,65.26 -8.1,72.54 -11.56,159.58 -10.36,232.73 0.95,57.19 2.46,137.79 8.24,195.34 0.9,8.9 12.62,15.38 26.97,15.91 20.56,0.76 20.56,0.76 34.05,0 37.99,-2.13 67.97,0.68 106,0.27 122.21,-1.33 244.41,-2.65 366.6,-3.98 16.61,-0.18 40,14.68 48.03,-2.46 3.86,-8.22 0.27,-35.21 0.26,-44.6 -0.08,-73.85 0.6,-147.7 2.04,-221.54 0.73,-37.86 1.67,-75.72 2.8,-113.56 0.93,-31.01 -1.83,-73.79 -7.46,-104.06 -9.22,-49.54 -97.35,-30.19 -130.7,-29.44 -62.66,1.39 -125.32,3.47 -187.95,6.24 -69.06,3.06 -138.08,-6.74 -207.07,-2.11" /><path
         id="path20"
         style="fill:#5e625e;fill-opacity:1;fill-rule:nonzero;stroke:none"
         d="m 5849.03,6675.57 c 11.64,0.83 24.99,1.31 33.08,-6.66 7.24,-7.13 7.27,-18.2 6.86,-28.09 -0.09,-2.2 -0.22,-4.52 -1.44,-6.39 -2.05,-3.14 -6.38,-4 -10.24,-4.52 -50.45,-6.86 -101.71,-5.28 -152.67,-3.68 -10.66,0.33 -22.21,0.97 -30.37,7.48 -6.88,5.48 -10.04,14.8 -7.82,23.04 7.23,26.94 44.14,17.42 64.6,16.8 32.67,-1 65.41,-0.33 98,2.02" /><path
         id="path22"
         style="fill:#ebefeb;fill-opacity:1;fill-rule:nonzero;stroke:none"
         d="m 5547.7,6731.13 c -9.97,0.68 -35.04,-0.03 -43.62,6 -15.79,11.09 -5.43,43.77 -7.83,65.26 -8.1,72.53 -11.56,159.57 -10.36,232.72 0.95,57.19 2.46,137.8 8.24,195.35 0.9,8.89 12.62,15.38 26.97,15.91 20.56,0.75 20.56,0.75 34.05,0 37.99,-2.14 67.97,0.67 106,0.26 122.21,-1.32 244.41,-2.65 366.6,-3.97 16.61,-0.19 40,14.68 48.03,-2.46 3.86,-8.23 0.27,-35.21 0.26,-44.61 -0.08,-73.85 0.6,-147.7 2.04,-221.53 0.73,-37.87 1.67,-75.72 2.8,-113.57 0.93,-31.01 -1.83,-73.79 -7.46,-104.06 -9.22,-49.54 -97.35,-30.18 -130.7,-29.44 -62.66,1.39 -125.32,3.47 -187.95,6.24 -69.06,3.06 -138.08,-6.74 -207.07,-2.1" /><path
         id="path24"
         style="fill:#5e625e;fill-opacity:1;fill-rule:nonzero;stroke:none"
         d="m 5849.03,7198.1 c 11.64,0.83 24.99,1.31 33.08,-6.66 7.24,-7.13 7.27,-18.2 6.86,-28.09 -0.09,-2.2 -0.22,-4.51 -1.44,-6.39 -2.05,-3.14 -6.38,-4 -10.24,-4.52 -50.45,-6.86 -101.71,-5.28 -152.67,-3.68 -10.66,0.34 -22.21,0.98 -30.37,7.48 -6.88,5.48 -10.04,14.8 -7.82,23.04 7.23,26.94 44.14,17.43 64.6,16.8 32.67,-1 65.41,-0.33 98,2.02" /><path
         id="path26"
         style="fill:#ebefeb;fill-opacity:1;fill-rule:nonzero;stroke:none"
         d="m 5630.51,7976.24 c -2.19,1.39 -7.7,-0.04 -9.58,12.2 -3.47,22.55 -1.19,88.96 -1.72,132.63 -1.78,147.41 -2.54,324.29 -2.28,472.95 0.21,116.24 0.54,280.05 1.81,397 0.2,18.09 2.77,31.26 5.93,32.34 4.52,1.54 4.52,1.54 7.48,0 8.35,-4.34 14.94,1.38 23.3,0.54 26.85,-2.7 37.13,2.1 63.98,-0.59 3.65,-0.37 22.92,6.94 27.14,-12.49 3.48,-15.99 0.06,-71.56 0.06,-90.66 -0.02,-150.08 0.13,-300.17 0.44,-450.21 0.17,-76.95 0.37,-153.89 0.63,-230.81 0.2,-63.01 -3.25,-149.97 -1.65,-211.46 1.68,-64.5 -21.39,-61.35 -28.73,-59.84 -13.77,2.83 -28.44,-3.66 -42.2,1.98 -15.18,6.2 -29.45,-2.99 -44.61,6.42" /><path
         id="path28"
         style="fill:#97a8b2;fill-opacity:1;fill-rule:nonzero;stroke:none"
         d="m 5763.25,7971.07 c -2.43,1.45 -8.54,-0.05 -10.62,12.69 -3.85,23.45 -1.33,92.54 -1.92,137.97 -1.97,153.36 -2.82,337.37 -2.52,492.02 0.23,120.92 0.6,291.33 2.01,413 0.21,18.81 3.07,32.52 6.57,33.64 5.01,1.6 5.01,1.6 8.3,0 9.26,-4.51 16.56,1.43 25.83,0.56 29.78,-2.8 41.17,2.19 70.96,-0.62 4.04,-0.38 25.42,7.22 30.09,-12.98 3.85,-16.64 0.06,-74.45 0.06,-94.31 -0.02,-156.14 0.15,-312.27 0.5,-468.37 0.18,-80.04 0.41,-160.08 0.68,-240.1 0.23,-65.55 -3.59,-156.02 -1.81,-219.99 1.85,-67.09 -23.73,-63.82 -31.86,-62.25 -15.27,2.94 -31.54,-3.8 -46.81,2.06 -16.83,6.46 -32.64,-3.11 -49.46,6.68" /><path
         id="path30"
         style="fill:#a1b299;fill-opacity:1;fill-rule:nonzero;stroke:none"
         d="m 6238.76,6523.5 c -31.36,22.93 -59.7,49.99 -84.05,80.26 -6.24,7.76 -12.37,16.02 -14.85,25.67 -4.95,19.24 5.59,38.95 17.53,54.83 10.11,13.45 22.53,26.55 38.86,30.6 15.23,3.77 31.69,-1.19 44.37,-10.43 12.68,-9.24 22.02,-22.36 29.69,-36.04 21.68,-38.65 31.51,-82.64 41.07,-125.92 1.79,-8.12 3.6,-16.47 2.37,-24.71 -2.05,-13.75 -16.33,-30.37 -31.4,-26.6 -14.23,3.56 -31.68,23.63 -43.59,32.34" /><path
         id="path32"
         style="fill:#a1b299;fill-opacity:1;fill-rule:nonzero;stroke:none"
         d="m 6550.08,6732.97 c -17.77,22.3 -51.87,25.07 -75.51,13.52 -22.78,-11.12 -38.11,-32.08 -52.46,-52.72 0.36,26.42 -0.65,52.78 -3.9,78.95 -2.98,24.03 -7.96,48.3 -19.87,69.38 -11.9,21.09 -31.66,38.78 -55.43,43.36 -40.24,7.75 -79.46,-24.64 -93.88,-63 -14.42,-38.36 -10.21,-80.87 -5.81,-121.61 7.21,-66.63 14.42,-133.27 21.62,-199.9 1.06,-9.81 -2.29,-32.21 3.33,-39.4 8.02,-10.27 43.56,-14.97 55.9,-16.96 20.72,-3.32 42.7,-2.25 61.61,6.86 3.2,1.54 6.34,3.35 8.7,6 4.09,4.62 5.21,11.09 5.94,17.22 1.39,11.47 2.87,23 4.38,34.56 0.94,0.71 1.94,1.36 2.82,2.12 47.14,40.89 99.39,80.59 134.54,133.25 8.55,12.78 16.13,26.61 18.77,42.13 2.64,15.52 -0.25,33.06 -10.75,46.24" /><path
         id="path34"
         style="fill:#85997a;fill-opacity:1;fill-rule:nonzero;stroke:none"
         d="m 6308.04,6808.66 c 0.46,9.52 -15.11,11.87 -16.77,2.32 -2.3,-13.21 -4.1,-26.28 -2.68,-39.71 1.32,-12.38 19.88,-13.09 19.79,-0.06 -0.09,12.5 -0.95,24.95 -0.34,37.45" /><path
         id="path36"
         style="fill:#85997a;fill-opacity:1;fill-rule:nonzero;stroke:none"
         d="m 6367.16,6743.51 c -0.09,10.3 -15.82,10.34 -15.97,0.04 -0.11,-7.2 -0.2,-14.41 -0.31,-21.62 -0.16,-10.62 16.55,-10.66 16.46,-0.05 -0.05,7.21 -0.12,14.42 -0.18,21.63" /><path
         id="path38"
         style="fill:#85997a;fill-opacity:1;fill-rule:nonzero;stroke:none"
         d="m 6317.29,6664.94 c 2.43,10.07 -12.7,14.33 -15.51,4.32 -2.09,-7.43 -2.84,-14.16 -2.27,-21.86 0.81,-10.86 18.02,-10.71 16.83,-0.05 -0.71,6.4 -0.61,11.18 0.95,17.59" /><path
         id="path40"
         style="fill:#85997a;fill-opacity:1;fill-rule:nonzero;stroke:none"
         d="m 6396.89,6601.09 c -3.07,-3.47 -6.16,-6.94 -9.23,-10.42 -7.58,-8.55 3.89,-20.11 12.47,-12.55 3.48,3.07 6.97,6.14 10.45,9.21 9.42,8.3 -5.37,23.15 -13.69,13.76" /><path
         id="path42"
         style="fill:#85997a;fill-opacity:1;fill-rule:nonzero;stroke:none"
         d="m 6487.62,6691.2 c -3.18,-4.04 -6.36,-8.07 -9.53,-12.11 -7.15,-9.08 4.89,-22.11 12.99,-13.07 3.41,3.8 6.82,7.61 10.23,11.41 8.47,9.44 -6.09,23.42 -13.69,13.77" /><path
         id="path44"
         style="fill:#c7b299;fill-opacity:1;fill-rule:nonzero;stroke:none"
         d="m 6194.23,6205.21 c 4.25,-6.48 11.77,-6.72 18.38,-6.48 90.68,3.41 181,-5.72 271.7,-2.31 14.32,112.14 25.07,237.79 26.43,350.82 -63.25,-0.01 -126.5,-0.01 -189.75,-0.01 -30.78,-0.01 -61.56,-0.01 -92.33,-0.01 -18.57,0 -70.15,2.28 -72.05,-7.67 -3.63,-18.99 3.24,-56 5.24,-73.26 3.25,-28.03 6.62,-56.04 9.98,-84.06 6.43,-53.77 12.97,-107.54 18.42,-161.44 0.56,-5.53 1.22,-11.38 3.98,-15.58" /><path
         id="path46"
         style="fill:#85997a;fill-opacity:1;fill-rule:nonzero;stroke:none"
         d="m 6229.32,6600.63 c -5.12,13.09 -17,23.44 -28.87,30.4 -5.31,3.12 -11.13,-4.22 -6.62,-8.59 4.21,-4.07 7.82,-8.45 11.02,-13.35 3.22,-4.9 5.34,-10.29 8.33,-15.27 4.96,-8.2 19.92,-2.83 16.14,6.81" /><path
         id="path48"
         style="fill:#85997a;fill-opacity:1;fill-rule:nonzero;stroke:none"
         d="m 6305.97,6585.95 c -1.04,-0.27 -4.63,2.66 -5.41,3.24 -2.37,1.73 -4.47,3.78 -6.46,5.93 -4.48,4.83 -12.85,-1.48 -9.2,-7.1 2.19,-3.37 4.64,-6.59 7.46,-9.45 2.43,-2.48 5.94,-4.62 7.43,-7.77 3.65,-7.68 15.44,-5.96 18.34,1.23 3.13,7.79 -3.88,16.05 -12.16,13.92" /><path
         id="path50"
         style="fill:#97a8b2;fill-opacity:1;fill-rule:nonzero;stroke:none"
         d="m 7965.05,7996.27 c -3.27,0.81 -9.71,-3.03 -16.56,10.87 -12.63,25.59 -34.02,105.82 -50.64,157.78 -56.1,175.43 -121.69,386.46 -175.67,564.17 -42.2,138.94 -101.63,334.78 -142.76,475 -6.35,21.68 -7.91,38.42 -4.31,40.92 5.14,3.58 5.14,3.58 9.45,2.89 12.14,-1.95 18.38,7.43 29.25,9.65 34.93,7.17 46.16,16.87 81.08,24.03 4.75,0.97 26.45,17.15 38.87,-4.43 10.23,-17.76 26.22,-85.47 33.19,-108.28 54.82,-179.32 109.84,-358.58 165.05,-537.71 28.32,-91.87 56.69,-183.71 85.11,-275.51 23.27,-75.2 50.69,-180.43 75.18,-253.27 25.69,-76.41 -4.62,-81.57 -14.44,-82.6 -18.44,-1.94 -34.62,-15.36 -54.07,-13.95 -21.46,1.55 -36.12,-14.95 -58.73,-9.56" /><path
         id="path52"
         style="fill:#6c99b9;fill-opacity:1;fill-rule:nonzero;stroke:none"
         d="m 8106.68,7961.11 c -1.84,1.66 -6.48,-0.06 -8.07,14.64 -2.92,27.08 -1,106.83 -1.44,159.28 -1.51,177.03 -2.15,389.46 -1.93,567.98 0.18,139.59 0.46,336.31 1.53,476.77 0.16,21.72 2.34,37.54 5,38.83 3.8,1.85 3.8,1.85 6.3,0 7.03,-5.21 12.56,1.66 19.61,0.65 22.61,-3.24 31.27,2.53 53.87,-0.71 3.08,-0.44 19.31,8.33 22.85,-14.99 2.93,-19.21 0.05,-85.94 0.05,-108.87 -0.02,-180.25 0.11,-360.49 0.38,-540.68 0.13,-92.41 0.31,-184.81 0.52,-277.18 0.17,-75.67 -2.73,-180.11 -1.39,-253.96 1.42,-77.45 -18,-73.67 -24.17,-71.86 -11.61,3.4 -23.96,-4.39 -35.55,2.38 -12.78,7.45 -24.79,-3.59 -37.56,7.72" /><path
         id="path54"
         style="fill:#6c99b9;fill-opacity:1;fill-rule:nonzero;stroke:none"
         d="m 8223.67,7965.63 c -2.88,1.48 -10.13,-0.05 -12.62,13.05 -4.57,24.13 -1.57,95.22 -2.27,141.96 -2.34,157.79 -3.34,347.13 -3,506.25 0.27,124.41 0.71,299.76 2.39,424.95 0.26,19.35 3.66,33.45 7.81,34.6 5.94,1.65 5.94,1.65 9.85,0 11,-4.64 19.67,1.48 30.68,0.59 35.37,-2.89 48.9,2.25 84.27,-0.64 4.81,-0.39 30.19,7.43 35.74,-13.36 4.57,-17.12 0.08,-76.6 0.08,-97.04 -0.03,-160.65 0.17,-321.3 0.59,-481.91 0.21,-82.36 0.48,-164.71 0.81,-247.05 0.27,-67.44 -4.27,-160.53 -2.16,-226.35 2.21,-69.04 -28.17,-65.67 -37.83,-64.06 -18.14,3.03 -37.46,-3.9 -55.6,2.12 -19.99,6.65 -38.77,-3.19 -58.74,6.89" /><path
         id="path56"
         style="fill:#537082;fill-opacity:1;fill-rule:nonzero;stroke:none"
         d="m 8392.21,7965.26 c -2.19,1.42 -7.7,-0.05 -9.58,12.54 -3.47,23.2 -1.19,91.53 -1.72,136.47 -1.79,151.67 -2.55,333.67 -2.29,486.63 0.22,119.6 0.55,288.15 1.82,408.48 0.19,18.61 2.77,32.17 5.93,33.27 4.51,1.58 4.51,1.58 7.48,0 8.35,-4.46 14.94,1.42 23.3,0.56 26.85,-2.77 37.13,2.16 63.98,-0.61 3.65,-0.37 22.92,7.14 27.14,-12.85 3.47,-16.45 0.06,-73.63 0.06,-93.27 -0.02,-154.43 0.13,-308.86 0.44,-463.24 0.17,-79.18 0.37,-158.34 0.61,-237.48 0.21,-64.83 -3.23,-154.32 -1.63,-217.58 1.67,-66.36 -21.39,-63.13 -28.73,-61.58 -13.77,2.92 -28.44,-3.75 -42.2,2.04 -15.19,6.39 -29.45,-3.07 -44.61,6.62" /><path
         id="path58"
         style="fill:#d3e4ea;fill-opacity:1;fill-rule:nonzero;stroke:none"
         d="m 8524.95,7959.93 c -2.43,1.49 -8.54,-0.05 -10.63,13.05 -3.85,24.14 -1.32,95.23 -1.91,141.97 -1.97,157.79 -2.82,347.13 -2.53,506.25 0.24,124.41 0.61,299.76 2.01,424.94 0.22,19.36 3.08,33.46 6.58,34.61 5.01,1.65 5.01,1.65 8.3,0 9.26,-4.64 16.56,1.48 25.83,0.58 29.78,-2.88 41.17,2.26 70.95,-0.63 4.05,-0.39 25.42,7.43 30.1,-13.36 3.85,-17.12 0.06,-76.6 0.06,-97.04 -0.02,-160.65 0.15,-321.3 0.5,-481.91 0.17,-82.37 0.4,-164.72 0.68,-247.05 0.23,-67.44 -3.59,-160.53 -1.82,-226.35 1.86,-69.04 -23.72,-65.67 -31.85,-64.06 -15.27,3.03 -31.55,-3.91 -46.82,2.12 -16.82,6.65 -32.64,-3.2 -49.45,6.88" /><path
         id="path60"
         style="fill:#97a8b2;fill-opacity:1;fill-rule:nonzero;stroke:none"
         d="m 9341.18,7959.93 c -2.43,1.49 -8.54,-0.05 -10.62,13.05 -3.86,24.14 -1.33,95.23 -1.92,141.97 -1.97,157.79 -2.82,347.13 -2.53,506.25 0.24,124.41 0.61,299.76 2.02,424.94 0.21,19.36 3.07,33.46 6.57,34.61 5.01,1.65 5.01,1.65 8.3,0 9.26,-4.64 16.56,1.48 25.83,0.58 29.78,-2.88 41.17,2.26 70.96,-0.63 4.04,-0.39 25.42,7.43 30.09,-13.36 3.85,-17.12 0.06,-76.6 0.06,-97.04 -0.02,-160.65 0.15,-321.3 0.5,-481.91 0.18,-82.37 0.4,-164.72 0.68,-247.05 0.23,-67.44 -3.59,-160.53 -1.81,-226.35 1.85,-69.04 -23.73,-65.67 -31.86,-64.06 -15.27,3.03 -31.54,-3.91 -46.81,2.12 -16.83,6.65 -32.64,-3.2 -49.46,6.88" /><path
         id="path62"
         style="fill:#d3e4ea;fill-opacity:1;fill-rule:nonzero;stroke:none"
         d="m 8666.86,7959.56 c -1.85,1.43 -6.49,-0.05 -8.07,12.55 -2.93,23.2 -1.01,91.53 -1.46,136.46 -1.49,151.68 -2.13,333.68 -1.91,486.64 0.18,119.59 0.45,288.14 1.52,408.48 0.17,18.61 2.34,32.16 4.99,33.27 3.81,1.58 3.81,1.58 6.3,0 7.03,-4.46 12.58,1.42 19.62,0.56 22.61,-2.78 31.26,2.16 53.88,-0.61 3.06,-0.38 19.3,7.14 22.85,-12.85 2.92,-16.45 0.05,-73.63 0.05,-93.28 -0.02,-154.42 0.11,-308.85 0.37,-463.24 0.14,-79.17 0.31,-158.33 0.52,-237.47 0.17,-64.84 -2.73,-154.32 -1.38,-217.59 1.42,-66.36 -18.02,-63.12 -24.19,-61.57 -11.59,2.91 -23.95,-3.76 -35.54,2.04 -12.78,6.39 -24.79,-3.08 -37.55,6.61" /><path
         id="path64"
         style="fill:#d3e4ea;fill-opacity:1;fill-rule:nonzero;stroke:none"
         d="m 9227.03,7959.56 c -1.84,1.43 -6.48,-0.05 -8.07,12.55 -2.92,23.2 -1.01,91.53 -1.45,136.46 -1.5,151.68 -2.14,333.68 -1.92,486.64 0.17,119.59 0.45,288.14 1.53,408.48 0.16,18.61 2.33,32.16 4.99,33.27 3.8,1.58 3.8,1.58 6.3,0 7.03,-4.46 12.58,1.42 19.62,0.56 22.6,-2.78 31.26,2.16 53.86,-0.61 3.08,-0.38 19.31,7.14 22.86,-12.85 2.93,-16.45 0.04,-73.63 0.04,-93.28 0,-154.42 0.11,-308.85 0.39,-463.24 0.13,-79.17 0.3,-158.33 0.51,-237.47 0.17,-64.84 -2.73,-154.32 -1.38,-217.59 1.41,-66.36 -18.01,-63.12 -24.18,-61.57 -11.6,2.91 -23.96,-3.76 -35.55,2.04 -12.77,6.39 -24.79,-3.08 -37.55,6.61" /><path
         id="path66"
         style="fill:#d3e4ea;fill-opacity:1;fill-rule:nonzero;stroke:none"
         d="m 5901.52,7967.31 c -1.64,1.63 -6.44,0.63 -6.37,13.44 0.12,23.59 10.95,91.96 16.37,137.1 18.32,152.38 41.45,335.1 61.64,488.57 15.8,120.01 38.08,289.13 54.86,409.78 2.59,18.66 6.51,32.04 9.29,32.87 3.99,1.19 3.99,1.19 6.26,-0.67 6.4,-5.21 12.68,0.11 19.56,-1.49 22.09,-5.16 31.33,-1.12 53.42,-6.27 3.01,-0.7 20.11,5.14 21.03,-15.29 0.75,-16.82 -9.57,-73.9 -12.14,-93.62 -20.18,-154.98 -40.22,-309.97 -60.11,-464.93 -10.2,-79.47 -20.37,-158.93 -30.5,-238.38 -8.29,-65.08 -22.85,-154.58 -29.77,-218.21 -7.27,-66.75 -26.13,-61.46 -32.06,-59.26 -11.14,4.14 -24.29,-1.25 -35.04,5.78 -11.86,7.75 -25.02,-0.48 -36.44,10.58" /><path
         id="path68"
         style="fill:#ebefeb;fill-opacity:1;fill-rule:nonzero;stroke:none"
         d="m 8783.85,7966.74 c -2.89,1.59 -10.15,-0.06 -12.63,13.99 -4.57,25.89 -1.57,102.13 -2.26,152.26 -2.35,169.23 -3.35,372.3 -3,542.96 0.27,133.43 0.71,321.49 2.38,455.75 0.26,20.76 3.65,35.89 7.81,37.12 5.95,1.77 5.95,1.77 9.86,0 10.99,-4.98 19.66,1.59 30.68,0.62 35.36,-3.09 48.9,2.42 84.26,-0.68 4.8,-0.42 30.19,7.97 35.75,-14.33 4.57,-18.35 0.07,-82.15 0.07,-104.07 -0.02,-172.3 0.17,-344.6 0.58,-516.85 0.22,-88.34 0.49,-176.66 0.82,-264.96 0.27,-72.34 -4.26,-172.18 -2.16,-242.77 2.21,-74.04 -28.18,-70.43 -37.83,-68.7 -18.14,3.25 -37.47,-4.19 -55.59,2.27 -19.99,7.13 -38.77,-3.43 -58.74,7.39" /><path
         id="path70"
         style="fill:#abbcc4;fill-opacity:1;fill-rule:nonzero;stroke:none"
         d="m 8952.38,7966.34 c -2.18,1.53 -7.7,-0.05 -9.59,13.45 -3.46,24.88 -1.19,98.17 -1.72,146.36 -1.77,162.68 -2.53,357.87 -2.27,521.92 0.2,128.27 0.54,309.04 1.81,438.1 0.2,19.96 2.77,34.5 5.92,35.68 4.52,1.7 4.52,1.7 7.48,0 8.36,-4.78 14.95,1.53 23.3,0.6 26.86,-2.97 37.13,2.32 63.99,-0.65 3.65,-0.41 22.92,7.65 27.14,-13.78 3.47,-17.65 0.06,-78.97 0.06,-100.04 -0.02,-165.63 0.12,-331.25 0.45,-496.83 0.15,-84.91 0.36,-169.81 0.61,-254.7 0.21,-69.53 -3.24,-165.5 -1.64,-233.35 1.68,-71.18 -21.4,-67.71 -28.72,-66.04 -13.77,3.12 -28.45,-4.03 -42.22,2.18 -15.17,6.85 -29.43,-3.29 -44.6,7.1" /><path
         id="path72"
         style="fill:#999999;fill-opacity:1;fill-rule:nonzero;stroke:none"
         d="m 9085.12,7960.63 c -2.42,1.59 -8.54,-0.05 -10.63,14 -3.85,25.88 -1.33,102.13 -1.91,152.26 -1.97,169.23 -2.81,372.29 -2.52,542.95 0.22,133.44 0.59,321.49 2,455.76 0.23,20.76 3.08,35.88 6.58,37.12 5,1.76 5,1.76 8.29,0 9.26,-4.98 16.57,1.58 25.84,0.62 29.78,-3.09 41.18,2.41 70.95,-0.68 4.05,-0.42 25.42,7.96 30.1,-14.33 3.85,-18.36 0.07,-82.16 0.06,-104.08 -0.02,-172.3 0.14,-344.6 0.5,-516.85 0.17,-88.33 0.41,-176.66 0.68,-264.96 0.22,-72.34 -3.6,-172.17 -1.82,-242.76 1.87,-74.04 -23.72,-70.43 -31.85,-68.7 -15.28,3.25 -31.55,-4.19 -46.81,2.27 -16.84,7.13 -32.65,-3.43 -49.46,7.38" /><path
         id="path74"
         style="fill:#ebefeb;fill-opacity:1;fill-rule:nonzero;stroke:none"
         d="m 6150.39,7977.79 c -2.05,1.55 -7.22,-0.05 -8.98,13.63 -3.26,25.19 -1.12,99.39 -1.62,148.18 -1.66,164.7 -2.38,362.32 -2.12,528.41 0.18,129.86 0.49,312.88 1.69,443.55 0.18,20.2 2.6,34.92 5.55,36.12 4.24,1.72 4.24,1.72 7.01,0 7.84,-4.84 14.01,1.54 21.84,0.61 25.17,-3.01 34.79,2.35 59.97,-0.66 3.42,-0.41 21.48,7.75 25.43,-13.95 3.25,-17.87 0.06,-79.96 0.06,-101.29 -0.02,-167.68 0.12,-335.37 0.41,-503.01 0.16,-85.97 0.35,-171.92 0.58,-257.86 0.19,-70.4 -3.03,-167.56 -1.54,-236.26 1.57,-72.06 -20.05,-68.54 -26.91,-66.86 -12.91,3.16 -26.66,-4.08 -39.56,2.21 -14.23,6.94 -27.6,-3.34 -41.81,7.18" /><path
         id="path76"
         style="fill:#d3e4ea;fill-opacity:1;fill-rule:nonzero;stroke:none"
         d="m 6281.7,7977.33 c -2.88,1.47 -10.14,-0.05 -12.62,12.98 -4.57,24.01 -1.57,94.75 -2.26,141.26 -2.35,157 -3.35,345.38 -3,503.71 0.27,123.79 0.71,298.25 2.38,422.82 0.26,19.25 3.65,33.29 7.8,34.43 5.95,1.64 5.95,1.64 9.86,0 11,-4.62 19.68,1.47 30.68,0.58 35.37,-2.87 48.9,2.24 84.27,-0.63 4.8,-0.39 30.18,7.39 35.74,-13.3 4.57,-17.03 0.08,-76.21 0.08,-96.55 -0.03,-159.85 0.16,-319.69 0.58,-479.5 0.22,-81.95 0.49,-163.89 0.82,-245.81 0.27,-67.1 -4.27,-159.73 -2.16,-225.21 2.2,-68.7 -28.18,-65.34 -37.83,-63.74 -18.14,3.02 -37.47,-3.89 -55.6,2.11 -19.98,6.61 -38.77,-3.18 -58.74,6.85" /><path
         id="path78"
         style="fill:#537082;fill-opacity:1;fill-rule:nonzero;stroke:none"
         d="m 6453.84,7979.07 c -2.02,1.66 -7.12,-0.05 -8.86,14.6 -3.21,26.98 -1.11,106.47 -1.59,158.73 -1.65,176.43 -2.35,388.13 -2.11,566.05 0.19,139.11 0.5,335.16 1.68,475.14 0.17,21.64 2.56,37.41 5.48,38.7 4.17,1.84 4.17,1.84 6.91,0 7.72,-5.19 13.81,1.65 21.53,0.65 24.83,-3.23 34.32,2.51 59.15,-0.71 3.37,-0.44 21.19,8.3 25.08,-14.94 3.22,-19.14 0.06,-85.65 0.06,-108.5 -0.02,-179.63 0.12,-359.26 0.41,-538.84 0.15,-92.09 0.34,-184.17 0.57,-276.23 0.19,-75.41 -2.99,-179.5 -1.52,-253.09 1.56,-77.19 -19.77,-73.42 -26.55,-71.62 -12.72,3.39 -26.29,-4.37 -39.01,2.37 -14.03,7.43 -27.22,-3.58 -41.23,7.69" /><path
         id="path80"
         style="fill:#ebefeb;fill-opacity:1;fill-rule:nonzero;stroke:none"
         d="m 6584.89,7978.36 c -2.89,1.55 -10.14,-0.05 -12.62,13.62 -4.57,25.19 -1.58,99.39 -2.27,148.18 -2.34,164.7 -3.35,362.32 -3,528.41 0.28,129.86 0.71,312.88 2.38,443.55 0.27,20.2 3.66,34.92 7.82,36.12 5.94,1.72 5.94,1.72 9.84,0 11.01,-4.84 19.68,1.55 30.68,0.61 35.38,-3.01 48.9,2.35 84.27,-0.66 4.81,-0.41 30.2,7.75 35.74,-13.95 4.58,-17.86 0.08,-79.95 0.08,-101.28 -0.02,-167.69 0.18,-335.37 0.59,-503.01 0.21,-85.97 0.49,-171.93 0.81,-257.87 0.27,-70.39 -4.27,-167.56 -2.16,-236.26 2.22,-72.05 -28.17,-68.54 -37.82,-66.86 -18.15,3.17 -37.47,-4.08 -55.6,2.22 -19.99,6.93 -38.78,-3.34 -58.74,7.18" /><path
         id="path82"
         style="fill:#ebefeb;fill-opacity:1;fill-rule:nonzero;stroke:none"
         d="m 6759.93,7977.88 c -2.88,1.48 -10.14,-0.04 -12.62,12.98 -4.57,24 -1.57,94.7 -2.27,141.19 -2.34,156.92 -3.34,345.21 -3,503.46 0.27,123.73 0.71,298.1 2.39,422.6 0.26,19.25 3.66,33.28 7.81,34.42 5.94,1.64 5.94,1.64 9.85,0 11,-4.61 19.67,1.47 30.68,0.58 35.37,-2.87 48.9,2.24 84.27,-0.63 4.81,-0.39 30.19,7.38 35.74,-13.29 4.57,-17.02 0.08,-76.18 0.08,-96.5 -0.03,-159.77 0.17,-319.54 0.59,-479.26 0.21,-81.91 0.48,-163.81 0.81,-245.69 0.27,-67.07 -4.27,-159.65 -2.16,-225.1 2.21,-68.66 -28.17,-65.31 -37.83,-63.71 -18.14,3.02 -37.46,-3.88 -55.6,2.11 -19.99,6.61 -38.77,-3.18 -58.74,6.84" /><path
         id="path84"
         style="fill:#97a8b2;fill-opacity:1;fill-rule:nonzero;stroke:none"
         d="m 6936.54,7978.64 c -2.88,1.6 -10.14,-0.05 -12.62,14.01 -4.57,25.9 -1.58,102.19 -2.27,152.36 -2.34,169.34 -3.35,372.54 -3,543.3 0.28,133.53 0.72,321.71 2.39,456.06 0.26,20.77 3.65,35.91 7.81,37.14 5.94,1.77 5.94,1.77 9.85,0 11,-4.98 19.67,1.59 30.68,0.63 35.37,-3.1 48.9,2.41 84.26,-0.68 4.82,-0.42 30.2,7.97 35.75,-14.34 4.57,-18.37 0.08,-82.21 0.07,-104.15 -0.02,-172.41 0.18,-344.82 0.59,-517.19 0.21,-88.39 0.49,-176.77 0.82,-265.13 0.26,-72.38 -4.27,-172.29 -2.17,-242.92 2.22,-74.09 -28.17,-70.48 -37.82,-68.75 -18.14,3.25 -37.47,-4.19 -55.6,2.28 -19.99,7.13 -38.77,-3.44 -58.74,7.38" /><path
         id="path86"
         style="fill:#97a8b2;fill-opacity:1;fill-rule:nonzero;stroke:none"
         d="m 7112.52,7977.51 c -2.88,1.42 -10.14,-0.05 -12.62,12.47 -4.57,23.05 -1.57,90.97 -2.26,135.62 -2.35,150.75 -3.35,331.63 -3,483.65 0.27,118.86 0.71,286.37 2.38,405.97 0.26,18.49 3.65,31.96 7.8,33.06 5.95,1.57 5.95,1.57 9.86,0 11,-4.43 19.68,1.42 30.68,0.56 35.37,-2.76 48.9,2.15 84.27,-0.61 4.8,-0.37 30.18,7.1 35.74,-12.76 4.57,-16.36 0.08,-73.18 0.08,-92.71 -0.03,-153.48 0.17,-306.96 0.59,-460.39 0.21,-78.69 0.48,-157.36 0.81,-236.02 0.27,-64.43 -4.27,-153.37 -2.16,-216.24 2.2,-65.96 -28.18,-62.74 -37.83,-61.2 -18.14,2.9 -37.47,-3.74 -55.59,2.02 -19.99,6.35 -38.78,-3.05 -58.75,6.58" /><path
         id="path88"
         style="fill:#d3e4ea;fill-opacity:1;fill-rule:nonzero;stroke:none"
         d="m 7288.51,7979.33 c -2.88,1.7 -10.14,-0.06 -12.62,14.94 -4.57,27.62 -1.58,109 -2.28,162.5 -2.34,180.62 -3.34,397.35 -2.99,579.49 0.27,142.42 0.71,343.13 2.39,486.43 0.25,22.15 3.65,38.3 7.8,39.61 5.95,1.89 5.95,1.89 9.85,0 11,-5.31 19.67,1.7 30.69,0.67 35.37,-3.3 48.89,2.58 84.27,-0.73 4.8,-0.45 30.18,8.5 35.74,-15.3 4.57,-19.59 0.08,-87.67 0.07,-111.07 -0.02,-183.89 0.17,-367.79 0.59,-551.63 0.21,-94.28 0.48,-188.55 0.81,-282.79 0.27,-77.21 -4.27,-183.76 -2.16,-259.1 2.21,-79.03 -28.17,-75.17 -37.83,-73.33 -18.13,3.47 -37.47,-4.47 -55.59,2.43 -19.99,7.61 -38.77,-3.66 -58.74,7.88" /><path
         id="path90"
         style="fill:#d3e4ea;fill-opacity:1;fill-rule:nonzero;stroke:none"
         d="m 7466.71,7976.63 c -2.89,1.29 -10.15,-0.04 -12.63,11.28 -4.57,20.86 -1.57,82.29 -2.26,122.68 -2.35,136.35 -3.35,299.96 -3,437.47 0.27,107.51 0.71,259.03 2.38,367.21 0.26,16.72 3.65,28.91 7.81,29.91 5.95,1.42 5.95,1.42 9.85,0 11,-4.01 19.68,1.27 30.69,0.5 35.36,-2.5 48.9,1.94 84.26,-0.55 4.8,-0.34 30.19,6.42 35.74,-11.55 4.58,-14.79 0.08,-66.19 0.08,-83.85 -0.02,-138.83 0.17,-277.65 0.58,-416.44 0.22,-71.17 0.49,-142.34 0.82,-213.48 0.27,-58.29 -4.27,-138.73 -2.16,-195.6 2.21,-59.66 -28.18,-56.75 -37.83,-55.36 -18.14,2.62 -37.47,-3.38 -55.59,1.83 -19.99,5.75 -38.77,-2.76 -58.74,5.95" /><path
         id="path92"
         style="fill:#4a4e31;fill-opacity:1;fill-rule:nonzero;stroke:none"
         d="m 6909.84,7068.62 c 32.7,15.44 203.46,83.41 122.77,133.22 -48.56,29.96 -94.49,-7.87 -122.63,-53.66 -0.07,44.94 -0.62,89.86 -2.58,134.68 1.47,-0.21 3.06,-0.1 4.77,0.52 20.03,7.24 48.34,21.35 57.13,42.64 6.74,16.33 -5.42,28.29 -21.64,27.55 -12.06,-0.55 -30.33,-12.64 -42.69,-26.4 -2.68,40.04 -6.72,79.99 -12.83,119.79 19.07,16.81 63.87,56.53 29.65,77 -11.98,7.15 -27.08,1.34 -34.69,-9.22 -5.92,-8.22 -8.04,-18.07 -8.19,-28.1 -1.92,1.28 -3.83,2.57 -5.75,3.84 -16.83,23.99 -41.79,48.66 -62.37,26.61 -29.01,-31.08 29.59,-53.95 58.25,-64.68 -0.51,-9.55 10.57,-15.14 18.36,-9.42 2.69,-35.35 4.28,-70.78 5.17,-106.25 -10.69,9.14 -23.15,16.82 -35.7,20.47 -15.24,9.84 -31.72,12.63 -45.7,-2.06 -41.64,-43.77 55.82,-57.97 74.79,-67.11 2.49,-1.21 5.06,-1.45 7.43,-1.01 0.5,-58.03 -0.43,-116.15 -1.13,-174.25 l -0.51,-1.25 c -13.21,43.94 -37.37,104.71 -74.26,96.58 -17.53,-3.87 -22.79,-20.78 -16.89,-36.53 3.12,-8.35 11.11,-14.12 17.21,-20.13 4.64,-4.56 9.1,-8.96 13.45,-13.34 13.83,-20.02 27.64,-40.06 41.55,-60.02 2.2,-3.15 5.73,-4.6 9.28,-4.71 0.55,-1.18 1.09,-2.42 1.65,-3.58 1.5,-3.16 4.64,-4.82 8.03,-5.21 -0.31,-37.87 -0.3,-75.7 0.44,-113.48 -2.84,1.12 -5.69,2.23 -8.54,3.34 -25.55,32.19 -78.73,82.02 -105.19,47.41 -36.23,-47.38 88.21,-82.28 113.43,-84.88 l 1.19,0.09 c 2.85,-87.5 17.39,-408.26 35.44,-494.61 2.27,-10.86 18.91,-6.27 16.64,4.58 -17.01,81.09 -30.91,396.5 -33.68,478.58 1.1,0.29 2.17,0.76 3.2,1.53 22.05,16.68 123.78,61.88 77.98,104.8 -31.95,29.95 -65.25,-8.5 -82.55,-44.29 -0.42,33.64 -0.39,67.29 -0.29,100.96" /><path
         id="path94"
         style="fill:#4a4e31;fill-opacity:1;fill-rule:nonzero;stroke:none"
         d="m 6860.89,6684 c 15.27,19.35 99.22,106.03 41.69,127.71 -32.32,12.18 -48.62,-24.19 -56.62,-59.96 -3.06,18.93 -6.2,37.75 -9.46,56.29 -3.5,19.98 -7.56,39.84 -12.24,59.52 l 1.02,1.25 c 1.73,2.82 3.52,5.53 5.33,8.22 23.03,21.41 58.05,40.61 74.36,66.84 11.1,17.85 10.27,47.87 -8.76,61.2 -39.84,27.9 -70.86,-56.95 -82.67,-96.89 -8.17,28.04 -17.88,55.53 -29.54,82.2 0.63,0.68 1.22,1.45 1.74,2.38 9.62,17.51 32.96,30.23 36,51.32 2,13.82 -6.59,29.37 -21.33,31.02 -21.2,2.37 -33.66,-15.73 -39.98,-36.91 -7.07,12.75 -14.74,25.23 -22.94,37.44 3.79,0.88 6.88,4.74 4.04,8.65 -1.61,2.22 -3.48,4.14 -5.21,6.22 -2.92,4.63 -6.64,8.54 -11.11,11.68 -10.57,9.68 -22.59,17.57 -36.26,23.13 -16.99,6.91 -44.07,12.88 -60.08,0 -13.21,-10.62 -7.46,-26.8 5.15,-34.92 25.11,-16.16 58.25,-0.46 85.05,-14.53 l 2.41,-0.76 c 2.5,-3.61 6.39,-4.35 9.94,-3.26 9.29,-16.7 17.67,-33.61 25.25,-50.72 -0.33,-2.18 -0.62,-4.35 -0.84,-6.48 -1.85,-0.55 -3.77,-0.93 -5.83,-1.01 -2.12,-0.07 -4.26,-0.01 -6.4,0.11 -26.03,12.47 -58.39,20.33 -71.29,-2.03 -23.29,-40.43 77.29,-27.89 91.49,-30.98 3.44,-0.74 6.34,-0.04 8.63,1.47 9.93,-26.86 18.16,-54.13 25.04,-81.71 -27.58,14.32 -62.74,19.07 -82.46,-8.87 -38.27,-54.22 78.13,-29.55 89.32,-31.71 l 2.35,-0.15 c 7.87,-38.47 13.65,-77.45 18.4,-116.71 -3.1,1.75 -6.27,3.43 -9.55,4.98 -32.97,25 -77.69,48.54 -100.55,6.77 -8.78,-16.04 -0.41,-30.96 14.1,-38.83 29.58,-16.04 68.58,-8.54 101.15,-18.73 7.3,-69.52 12.77,-139.59 22.44,-208.85 1.3,-9.42 15.93,-6.74 16.13,2.18 1.34,62.35 -4.06,126.63 -12.4,190.21 1.59,0.55 3.13,1.51 4.49,3.22" /><path
         id="path96"
         style="fill:#4a4e31;fill-opacity:1;fill-rule:nonzero;stroke:none"
         d="m 7292.41,7056.97 c -7.62,40.36 -50.84,37.02 -83.61,23.28 -0.65,0.51 -1.54,0.67 -2.51,0.07 -2.25,-1.39 -4.36,-2.89 -6.57,-4.31 -1.24,-0.64 -2.51,-1.25 -3.7,-1.91 l -1.81,-0.4 c 6.2,21.95 4.09,53.55 2.31,64.66 -1.88,11.78 -4.02,29.98 -18.99,31.65 -14.28,1.58 -21.29,-12.35 -25.21,-23.79 -9.65,-28.21 -12.74,-73.84 12.83,-94.69 -28.51,-22.16 -53.82,-46.93 -76.15,-73.84 3.05,12.35 4.68,24.82 5.01,35.29 0.61,18.51 -1.57,55.15 -25.59,59.82 -21.24,4.12 -30.21,-21.12 -32.78,-37.45 -3.64,-23.04 -1.07,-46.93 4.89,-69.78 0.55,-14.43 3.18,-28.62 11.74,-34.59 l 0.23,-0.6 0.91,-1.18 c -16.62,-25.53 -31.09,-52.42 -43.54,-80.39 -1.26,7.93 -2.99,15.47 -4.33,21.66 -5.08,23.27 -16.09,57.98 -46.18,55.73 -30.73,-2.29 -36.58,-37.45 -28.86,-61.34 8.37,-25.89 27.24,-45.15 48.81,-60.58 0.67,-1.42 1.42,-2.74 2.08,-4.19 1.31,-2.95 4.24,-4.6 7.4,-5.09 -7.2,-21 -13.41,-42.42 -18.7,-64.15 -4.3,6.51 -7.8,14.51 -12.97,22.58 -10.22,15.92 -25.93,35.48 -46.82,35.34 -13.64,-0.1 -26.66,-10.16 -24.72,-25.14 1.53,-11.8 14.66,-19.65 22.61,-26.15 17.84,-14.59 35.95,-28.83 53.81,-43.4 -15.74,-81.26 -19.37,-165.68 -13.97,-246.81 0.75,-11.25 18.15,-11.44 17.66,0 -3.35,78.72 0.08,159.12 13.71,236.68 l 2.01,-0.23 c 22.72,-0.06 144.35,15.91 109.7,61.73 -25.41,33.6 -74.77,1.15 -102.49,-28.3 -0.91,0.2 -1.67,0.57 -2.51,0.83 6.08,27.84 13.57,55.22 22.66,81.92 37.57,-14.25 175.31,-9.2 140.92,47.25 -17.53,28.78 -55.95,22.77 -82.7,13.34 -11.24,-3.97 -28.52,-11.03 -43.14,-20.54 11.7,28.24 25.42,55.51 41.31,81.59 l 0.05,-0.1 c 15.99,-24.45 56.49,-26.84 82.39,-25.18 30.37,1.97 56.96,8.76 52.49,44.57 -6.48,51.85 -69.54,39.11 -110.59,17.27 22.85,31.45 49.38,60.76 80.07,87.31 1.55,-2.12 3.6,-4.08 6.42,-5.66 12.08,-6.79 28.51,-9.01 41.85,-12.33 14.15,-3.53 31.26,-9.19 46.15,-7.35 18.94,2.33 32.11,17.36 28.42,36.9" /><path
         id="path98"
         style="fill:#cfcfcf;fill-opacity:1;fill-rule:nonzero;stroke:none"
         d="m 6781.69,6327.31 c 0.37,-12.49 0.82,-25.32 5.73,-36.82 10.33,-24.19 37.58,-36.51 63.39,-42.36 40.02,-9.07 81.6,-7.92 122.61,-6.08 19.36,0.86 40.18,2.41 55.17,14.61 5.35,4.35 9.68,9.93 12.57,16.16 2.69,5.81 4.1,12.09 5.51,18.33 2.38,10.56 4.77,21.12 7.14,31.69 4.1,18.18 2.75,38.36 3.75,56.96 1.2,22.52 3.27,43.11 2.42,65.64 -0.7,18.82 0.36,37.66 1.43,56.46 2.75,48.64 -1.33,100.89 1.42,149.52 -83.12,19.45 -163.22,16.21 -247.74,4.05 -14.53,-2.09 -39.11,-6.1 -42.57,-23.36 -1.71,-8.53 0.71,-19.59 0.97,-28.22 0.36,-12.34 0.73,-24.68 1.1,-37.02 1.5,-50.82 3.01,-101.63 4.52,-152.45 0.86,-29.04 1.72,-58.08 2.58,-87.11" /><path
         id="path100"
         style="fill:#736357;fill-opacity:1;fill-rule:nonzero;stroke:none"
         d="m 6774.49,6262.04 c 7.7,4.28 16.96,4.36 25.75,4.24 77.5,-1.02 155.2,-8.82 232.37,-1.56 13.54,1.28 30,1.74 37.53,-9.59 6.71,-10.1 1.5,-24.65 -8.16,-31.99 -9.66,-7.33 -22.29,-9.19 -34.37,-10.29 -46.35,-4.25 -92.88,-1.01 -139.28,0.57 -24.11,0.82 -48.26,1.26 -72.36,-0.05 -13.09,-0.71 -30.92,-5.81 -42.55,2.32 -15.73,11 -16.19,36.75 1.07,46.35" /><path
         id="path102"
         style="fill:#736357;fill-opacity:1;fill-rule:nonzero;stroke:none"
         d="m 9350.98,6860.43 c 5.5,0.17 11.47,0.2 15.94,-3.03 6.43,-4.64 7.07,-13.8 7.1,-21.73 0.87,-185.1 1.73,-370.2 2.59,-555.3 102.09,0.22 204.18,0.43 306.27,0.65 20.87,0.05 42.6,-0.1 61.35,-9.28 18.75,-9.17 33.43,-30.29 28.14,-50.49 -7.65,-29.22 -46.09,-34.84 -76.31,-34.57 -139.89,1.22 -279.79,2.45 -419.68,3.68 6.34,-0.05 3.33,364.67 2.51,397.63 -1.68,66.84 -4.41,133.65 -8.2,200.4 -3.87,68.3 16.02,70.14 80.29,72.04" /><path
         id="path104"
         style="fill:#736357;fill-opacity:1;fill-rule:nonzero;stroke:none"
         d="m 7663.52,6860.43 c -5.52,0.17 -11.49,0.2 -15.96,-3.03 -6.43,-4.64 -7.06,-13.8 -7.1,-21.73 -0.86,-185.1 -1.72,-370.2 -2.58,-555.3 -102.09,0.22 -204.18,0.43 -306.27,0.65 -20.88,0.05 -42.61,-0.1 -61.36,-9.28 -18.75,-9.17 -33.42,-30.29 -28.13,-50.49 7.66,-29.22 46.09,-34.84 76.3,-34.57 139.9,1.22 279.79,2.45 419.7,3.68 -6.36,-0.05 -3.34,364.67 -2.51,397.63 1.67,66.84 4.39,133.65 8.18,200.4 3.88,68.3 -16.01,70.14 -80.27,72.04" /><path
         id="path106"
         style="fill:#d3e4ea;fill-opacity:1;fill-rule:nonzero;stroke:none"
         d="m 7738.61,6181.68 c -2.88,1.3 -10.14,-0.04 -12.62,11.39 -4.57,21.04 -1.58,83.05 -2.27,123.82 -2.34,137.62 -3.35,302.76 -3,441.55 0.28,108.51 0.72,261.45 2.39,370.64 0.26,16.88 3.65,29.18 7.81,30.18 5.95,1.44 5.95,1.44 9.85,0 11,-4.05 19.67,1.29 30.69,0.51 35.36,-2.52 48.89,1.96 84.25,-0.55 4.82,-0.35 30.2,6.47 35.75,-11.66 4.58,-14.93 0.07,-66.81 0.07,-84.64 -0.02,-140.12 0.18,-280.24 0.59,-420.32 0.21,-71.84 0.49,-143.67 0.82,-215.47 0.26,-58.83 -4.27,-140.02 -2.17,-197.43 2.22,-60.21 -28.17,-57.28 -37.82,-55.87 -18.15,2.64 -37.47,-3.41 -55.6,1.85 -19.99,5.8 -38.77,-2.79 -58.74,6" /><path
         id="path108"
         style="fill:#537082;fill-opacity:1;fill-rule:nonzero;stroke:none"
         d="m 7902.45,6193.87 c -2.22,1.99 -8.49,0.87 -8.91,16.3 -0.75,28.42 10.79,110.62 16.15,164.92 18.08,183.29 41.3,403.05 61.81,587.64 16.04,144.32 38.69,347.72 55.99,492.82 2.68,22.43 7.3,38.48 10.93,39.43 5.19,1.37 5.19,1.37 8.25,-0.9 8.61,-6.39 16.65,-0.09 25.75,-2.14 29.24,-6.59 41.21,-1.87 70.45,-8.46 3.98,-0.89 26.21,5.85 28.22,-18.78 1.65,-20.27 -9.66,-88.88 -12.26,-112.59 -20.43,-186.39 -40.69,-372.8 -60.74,-559.18 -10.29,-95.58 -20.52,-191.15 -30.71,-286.71 -8.35,-78.28 -23.97,-185.86 -30.57,-262.42 -6.92,-80.3 -31.93,-73.61 -39.8,-70.85 -14.79,5.17 -31.85,-1.11 -46.27,7.55 -15.88,9.55 -32.85,-0.16 -48.29,13.37" /><path
         id="path110"
         style="fill:#ebefeb;fill-opacity:1;fill-rule:nonzero;stroke:none"
         d="m 8181.79,6177.44 c -1.84,1.67 -6.48,-0.06 -8.07,14.64 -2.92,27.08 -1.01,106.84 -1.44,159.28 -1.51,177.03 -2.14,389.46 -1.93,567.98 0.18,139.59 0.46,336.32 1.53,476.77 0.16,21.72 2.34,37.54 5,38.83 3.79,1.85 3.79,1.85 6.29,0 7.04,-5.2 12.58,1.66 19.61,0.65 22.62,-3.23 31.27,2.53 53.88,-0.71 3.08,-0.44 19.31,8.33 22.85,-14.99 2.93,-19.21 0.05,-85.94 0.05,-108.87 -0.01,-180.24 0.11,-360.49 0.38,-540.68 0.14,-92.41 0.3,-184.8 0.52,-277.18 0.17,-75.67 -2.74,-180.11 -1.39,-253.95 1.42,-77.46 -18.01,-73.68 -24.18,-71.87 -11.6,3.4 -23.95,-4.38 -35.54,2.38 -12.78,7.45 -24.79,-3.59 -37.56,7.72" /><path
         id="path112"
         style="fill:#6c99b9;fill-opacity:1;fill-rule:nonzero;stroke:none"
         d="m 8298.78,6183.81 c -2.88,1.66 -10.14,-0.06 -12.62,14.63 -4.57,27.05 -1.57,106.73 -2.26,159.13 -2.35,176.87 -3.35,389.09 -3,567.45 0.26,139.46 0.7,336 2.38,476.33 0.26,21.69 3.65,37.5 7.8,38.79 5.95,1.85 5.95,1.85 9.86,0 10.99,-5.2 19.68,1.66 30.68,0.65 35.37,-3.23 48.9,2.52 84.27,-0.71 4.8,-0.44 30.18,8.33 35.74,-14.98 4.57,-19.18 0.08,-85.86 0.08,-108.77 -0.03,-180.07 0.17,-360.15 0.58,-540.17 0.22,-92.33 0.48,-184.63 0.82,-276.92 0.27,-75.6 -4.27,-179.94 -2.16,-253.72 2.2,-77.38 -28.18,-73.61 -37.83,-71.8 -18.14,3.4 -37.47,-4.38 -55.6,2.37 -19.98,7.46 -38.77,-3.58 -58.74,7.72" /><path
         id="path114"
         style="fill:#537082;fill-opacity:1;fill-rule:nonzero;stroke:none"
         d="m 8467.31,6183.39 c -2.18,1.6 -7.69,-0.05 -9.58,14.06 -3.46,26.01 -1.19,102.6 -1.71,152.97 -1.79,170.02 -2.55,374.02 -2.29,545.47 0.22,134.06 0.55,322.99 1.82,457.87 0.19,20.86 2.77,36.05 5.92,37.29 4.52,1.78 4.52,1.78 7.49,0 8.34,-5 14.94,1.6 23.3,0.63 26.85,-3.11 37.12,2.43 63.98,-0.68 3.64,-0.43 22.92,8 27.14,-14.4 3.47,-18.44 0.06,-82.54 0.06,-104.56 -0.02,-173.1 0.12,-346.2 0.44,-519.25 0.16,-88.74 0.37,-177.48 0.61,-266.19 0.21,-72.67 -3.23,-172.97 -1.63,-243.89 1.67,-74.38 -21.4,-70.75 -28.73,-69.02 -13.77,3.27 -28.45,-4.21 -42.21,2.29 -15.18,7.16 -29.44,-3.45 -44.61,7.41" /><path
         id="path116"
         style="fill:#97a8b2;fill-opacity:1;fill-rule:nonzero;stroke:none"
         d="m 8600.06,6177.43 c -2.43,1.66 -8.55,-0.06 -10.64,14.63 -3.84,27.05 -1.31,106.73 -1.9,159.13 -1.97,176.87 -2.82,389.09 -2.53,567.45 0.23,139.46 0.61,336 2.01,476.33 0.22,21.69 3.08,37.5 6.57,38.79 5.01,1.85 5.01,1.85 8.31,0 9.25,-5.2 16.56,1.66 25.83,0.65 29.78,-3.23 41.17,2.52 70.95,-0.71 4.05,-0.44 25.42,8.33 30.1,-14.98 3.85,-19.18 0.06,-85.86 0.06,-108.77 -0.02,-180.07 0.14,-360.15 0.5,-540.18 0.17,-92.32 0.4,-184.62 0.68,-276.91 0.22,-75.6 -3.59,-179.95 -1.82,-253.72 1.86,-77.38 -23.73,-73.61 -31.85,-71.8 -15.28,3.4 -31.55,-4.38 -46.82,2.37 -16.82,7.45 -32.64,-3.58 -49.45,7.72" /><path
         id="path118"
         style="fill:#d3e4ea;fill-opacity:1;fill-rule:nonzero;stroke:none"
         d="m 8741.96,6177.01 c -1.84,1.6 -6.48,-0.05 -8.06,14.06 -2.93,26.01 -1.01,102.61 -1.46,152.97 -1.49,170.01 -2.14,374.02 -1.91,545.47 0.17,134.06 0.46,322.98 1.52,457.87 0.17,20.86 2.33,36.05 4.99,37.29 3.81,1.78 3.81,1.78 6.3,0 7.03,-5 12.58,1.6 19.62,0.63 22.62,-3.11 31.26,2.42 53.88,-0.68 3.06,-0.43 19.29,8 22.85,-14.4 2.92,-18.45 0.05,-82.54 0.05,-104.56 -0.02,-173.1 0.1,-346.2 0.37,-519.25 0.13,-88.75 0.31,-177.48 0.52,-266.19 0.17,-72.67 -2.73,-172.97 -1.38,-243.89 1.41,-74.38 -18.02,-70.76 -24.19,-69.02 -11.59,3.27 -23.96,-4.21 -35.54,2.29 -12.78,7.16 -24.79,-3.45 -37.56,7.41" /><path
         id="path120"
         style="fill:#ebefeb;fill-opacity:1;fill-rule:nonzero;stroke:none"
         d="m 8858.96,6185.05 c -2.89,1.79 -10.15,-0.06 -12.63,15.69 -4.57,29.02 -1.57,114.48 -2.27,170.67 -2.34,189.69 -3.35,417.31 -3,608.6 0.28,149.57 0.72,360.36 2.39,510.86 0.26,23.27 3.65,40.22 7.81,41.61 5.95,1.98 5.95,1.98 9.85,0 11,-5.58 19.67,1.77 30.69,0.7 35.36,-3.47 48.89,2.7 84.25,-0.77 4.82,-0.47 30.2,8.93 35.76,-16.06 4.57,-20.58 0.07,-92.09 0.07,-116.66 -0.02,-193.13 0.17,-386.26 0.58,-579.34 0.22,-99.02 0.49,-198.02 0.82,-297 0.26,-81.08 -4.27,-192.99 -2.17,-272.11 2.22,-82.99 -28.17,-78.95 -37.82,-77.01 -18.13,3.64 -37.47,-4.7 -55.59,2.55 -19.99,7.99 -38.77,-3.84 -58.74,8.27" /><path
         id="path122"
         style="fill:#ebefeb;fill-opacity:1;fill-rule:nonzero;stroke:none"
         d="m 9027.49,6184.61 c -2.19,1.71 -7.7,-0.06 -9.59,15.08 -3.47,27.89 -1.19,110.04 -1.72,164.05 -1.78,182.35 -2.54,401.14 -2.27,585.03 0.2,143.77 0.53,346.4 1.8,491.07 0.21,22.36 2.78,38.66 5.93,39.99 4.52,1.9 4.52,1.9 7.49,0 8.35,-5.36 14.93,1.71 23.29,0.67 26.86,-3.33 37.13,2.6 63.99,-0.73 3.65,-0.45 22.92,8.58 27.13,-15.45 3.48,-19.77 0.06,-88.51 0.06,-112.13 -0.02,-185.65 0.14,-371.3 0.45,-556.9 0.16,-95.18 0.36,-190.34 0.62,-285.49 0.2,-77.94 -3.24,-185.51 -1.64,-261.57 1.68,-79.78 -21.4,-75.89 -28.72,-74.03 -13.77,3.51 -28.45,-4.51 -42.22,2.45 -15.18,7.68 -29.43,-3.69 -44.6,7.96" /><path
         id="path124"
         style="fill:#97a8b2;fill-opacity:1;fill-rule:nonzero;stroke:none"
         d="m 9160.22,6178.21 c -2.42,1.78 -8.53,-0.06 -10.62,15.69 -3.85,29.01 -1.33,114.48 -1.91,170.67 -1.98,189.69 -2.82,417.3 -2.52,608.6 0.22,149.57 0.59,360.36 2.01,510.86 0.21,23.27 3.06,40.22 6.57,41.6 5.01,1.98 5.01,1.98 8.29,0 9.27,-5.58 16.56,1.78 25.84,0.7 29.78,-3.47 41.17,2.71 70.95,-0.76 4.05,-0.47 25.42,8.93 30.1,-16.07 3.84,-20.57 0.06,-92.08 0.05,-116.65 -0.02,-193.13 0.15,-386.26 0.5,-579.35 0.19,-99.01 0.41,-198.01 0.69,-296.99 0.22,-81.08 -3.6,-192.99 -1.82,-272.11 1.86,-83 -23.72,-78.95 -31.86,-77.01 -15.26,3.64 -31.54,-4.7 -46.8,2.55 -16.83,7.99 -32.65,-3.85 -49.47,8.27" /><path
         id="path126"
         style="fill:#ebefeb;fill-opacity:1;fill-rule:nonzero;stroke:none"
         d="m 9739.43,3708.22 c 99.58,54.58 185.81,130.29 268.87,207.67 24.8,23.02 50.1,46.77 81.5,59.14 31.5,12.37 70.9,10.73 94.8,-13.09 19.4,-19.24 24.9,-49.17 20.4,-76.09 -4.4,-26.92 -17.3,-51.6 -30.6,-75.42 -59.6,-106.73 -129.8,-207.06 -199.91,-307.17 -17.78,-25.39 -36,-51.25 -60.96,-69.63 -48.07,-35.42 -112.19,-37.36 -171.9,-37.71 -44.23,-0.27 -88.47,-0.43 -132.69,-0.59 -12.32,-0.04 -24.88,-0.05 -36.58,3.76 -37.97,12.38 -52.18,57.62 -60.96,96.59 -7.02,31.15 -19.11,69.14 -14.87,101.37 4.63,35.21 20.87,29.82 54.41,38.01 65.66,16.03 129.22,40.67 188.49,73.16" /><path
         id="path128"
         style="fill:#2b2b2b;fill-opacity:1;fill-rule:nonzero;stroke:none"
         d="m 6465.13,3280.56 c 447.21,3.99 894.43,7.98 1341.65,11.97 560.89,5 1122.3,10.03 1682.63,63.34 56.11,5.33 121.48,18.28 149.76,80.8 34.95,77.26 -17.71,176.28 -83.55,201.98 -65.85,25.7 -137.4,3.18 -206.29,-9.92 -167.63,-31.85 -337.14,-6.49 -504.41,17.69 -744.08,107.57 -1490.83,191.05 -2239.25,250.36 -132.05,10.46 -265.31,20.12 -396.84,-5.18 -119.89,-23.06 -602.34,-201.72 -413.58,-446.7 146.45,-190.06 477.1,-166.06 669.88,-164.34" /><path
         id="path130"
         style="fill:#2b2b2b;fill-opacity:1;fill-rule:nonzero;stroke:none"
         d="m 7077.34,4976.12 c 34.66,25.36 70.87,51.07 112.87,60.01 45,9.57 92.08,-1.28 134.55,-18.95 115.29,-47.98 204.88,-144.54 268.09,-252.24 63.21,-107.7 102.97,-227.2 143.97,-345.15 110.93,-319.1 234.2,-633.91 369.43,-943.49 -79.6,-45.52 -169.45,-72.99 -260.9,-79.75 -92.66,241.38 -291.94,430.1 -384.71,671.45 -27.13,70.6 -99.46,233.51 -127.83,303.63 -4.37,10.82 -9.84,22.43 -20.4,27.4 -10.88,5.12 -23.67,1.58 -35.08,-2.22 -310.1,-103.56 -366.86,-567.94 -618.51,-776.65 -70.89,-58.78 -283.71,13.4 -374.02,31.44 -37.32,7.46 -70.87,27.93 -100.41,51.95 -81.45,66.24 -136.26,163.72 -157.35,266.24 -21.97,106.74 73.1,166.91 142.72,235.31 181.15,177.98 370.53,347.56 567.34,508.06 111.09,90.59 224.56,178.29 340.24,262.96" /><path
         id="path132"
         style="fill:#ebefeb;fill-opacity:1;fill-rule:nonzero;stroke:none"
         d="m 2027.78,4344.51 c 59.29,57.6 133.07,100.17 212.61,122.66 41.53,11.75 85.58,18.07 127.91,9.63 81.3,-16.2 142.09,-82.79 191.87,-149.07 50.66,-67.47 96.42,-138.61 136.82,-212.68 21.32,-39.11 41.45,-79.95 47.55,-124.08 13.7,-99.04 -48.08,-197.06 -131.68,-251.89 -83.61,-54.83 -185.42,-73.85 -284.89,-84 -97.22,-9.91 -197.15,-12.24 -290.87,15.46 -115.47,34.12 -262.26,143.91 -235.19,280.45 25.4,128.15 133.87,304.13 225.87,393.52" /><path
         id="path134"
         style="fill:#ebefeb;fill-opacity:1;fill-rule:nonzero;stroke:none"
         d="m 1919.06,4105.77 c -58.65,-42.05 -106.7,-97.17 -150.33,-154.66 -115.61,-152.31 -206.31,-352.72 -137.3,-531.06 44.58,-115.23 149.79,-198.59 264.29,-245.02 114.51,-46.43 239.06,-60.81 361.83,-74.76 179.07,-20.34 358.14,-40.68 537.21,-61.03 222.52,-25.27 459,-48.36 660.54,49.27 65.33,31.65 124.39,75.02 179.06,122.77 75.95,66.34 145.43,143.6 183.77,236.88 38.33,93.28 41.71,204.86 -9.51,291.73 -41.32,70.1 -112.28,116.83 -182.4,158.11 -115.48,67.99 -236.42,128.48 -365.25,165.35 -130.37,37.3 -265.84,49.57 -398.31,76.92 -98.42,20.32 -194.42,53.21 -294.61,64.41 -210.56,23.54 -469.46,29.81 -648.99,-98.91" /><path
         id="path136"
         style="fill:#491e1e;fill-opacity:1;fill-rule:nonzero;stroke:none"
         d="m 4464.76,5017.57 c -9.25,-6.08 -13.28,-17.39 -16.71,-27.9 -9.88,-30.14 -19.73,-60.27 -29.6,-90.41 -4.01,-12.24 -8.04,-25.45 -4.26,-37.77 3.71,-12.08 14.13,-20.67 23.87,-28.73 59.89,-49.65 113.07,-107.37 157.67,-171.12 14.59,-20.85 28.65,-43.39 31.29,-68.7 5.39,-51.58 -36.6,-94.63 -75.38,-129.07 -107.36,-95.35 -216.43,-188.79 -327.13,-280.25 -56.79,-46.92 -112.8,-96.79 -172.54,-139.92 -42.96,-31.02 -98.63,-40.85 -97.13,-105.11 1.69,-72.23 62.87,-134.19 132.99,-151.61 70.11,-17.42 145.33,3.14 207.35,40.2 62.01,37.06 113.13,89.47 163.49,141.27 103.67,106.63 207.35,213.26 311.02,319.89 62.72,64.51 126.57,130.61 165.1,211.92 38.53,81.3 47.88,182.04 1.32,259.03 -30.31,50.14 -80.28,84.77 -129.85,115.98 -94.57,59.52 -194.32,112.74 -301.88,143.02 -13.13,3.7 -28.22,6.78 -39.62,-0.72" /><path
         id="path138"
         style="fill:#65627d;fill-opacity:1;fill-rule:nonzero;stroke:none"
         d="m 7030.75,3590.67 c -42.76,315.59 -55.04,502.27 -97.79,817.86 -14.45,106.68 83.18,222.76 21.41,284.19 -36.68,36.46 -105.43,199.52 -146.3,197.89 -126.67,-5.05 -207.96,-182.14 -327.04,-230.82 -90.4,-36.96 -246.08,-83.94 -373.34,-235.57 -127.78,-152.26 -380.67,-93.81 -573.93,-140.27 -240.25,-57.75 -600.49,-86.55 -842.73,-132.74 -294.88,-56.21 -546.85,24.06 -811.23,-152.95 -18.25,-12.22 -37.31,-26.56 -46.08,-53.88 -8.79,-27.37 -5.38,-61.8 -3.5,-94.1 8.38,-142.84 -19.76,-274.51 -70.91,-381.13 -70.96,-147.91 -37.77,-212.26 94.29,-252.22 335.15,-101.41 905.88,67.51 1241.04,-33.9 82.69,-25.02 166.97,13.63 249.76,3.57 76.97,-9.36 153.23,-5.68 229.29,-1.99 463.74,22.49 693.66,-140.37 1157.39,-117.87 108.25,5.25 229.65,20.61 287.8,150.6 52.46,117.28 32.38,221.9 11.87,373.33" /><path
         id="path140"
         style="fill:#e2cfc5;fill-opacity:1;fill-rule:nonzero;stroke:none"
         d="m 3393.13,3519.43 c 139.15,4.02 284.63,62.51 357.08,181.38 57.78,94.84 61.25,215.93 28.29,321.98 -14.4,46.3 -35.79,91.3 -69.03,126.57 -37.14,39.4 -86.65,64.38 -135.08,88.58 -107.07,53.48 -214.14,106.97 -321.21,160.45 -58.74,29.35 -120.75,59.42 -186.33,56.49 -70.27,-3.15 -134.79,-45.2 -177.87,-100.79 -43.08,-55.6 -67.12,-123.62 -83.56,-192.01 -21.62,-89.91 -31.24,-182.7 -28.54,-275.13 1.8,-61.15 9.45,-123.77 37.92,-177.91 47.59,-90.46 127.14,-106.64 216.73,-126.26 121.44,-26.58 235.14,-67 361.6,-63.35" /><path
         id="path142"
         style="fill:#aa6a64;fill-opacity:1;fill-rule:nonzero;stroke:none"
         d="m 3901.85,3090.64 c -70.31,25 -140.61,50 -210.92,75 -28.14,10.01 -59.26,22.71 -70.96,50.18 -25.83,60.66 64.69,116.61 57.48,182.15 -5.26,47.83 -58.82,73.37 -105.9,83.33 -11.61,2.45 -23.34,4.47 -35.14,6.24 9.27,14.96 12.66,31.91 5.7,48.81 -73.66,12.3 -151.86,26.75 -206.64,77.51 -16.65,15.42 -30.6,33.81 -48.74,47.45 -36.94,27.78 -90.23,31.83 -130.94,9.94 17.52,44.06 35.04,88.12 52.57,132.17 -66.51,16.51 -142.95,41.62 -165.56,106.32 -14.96,42.78 -0.69,89.67 13.55,132.7 63.35,191.45 229.66,463.07 -3.89,599.23 -96.31,43.72 -222.24,5.53 -278.03,-84.32 -29.05,-46.79 -40.23,-103.87 -74.47,-147.01 -48.38,-60.99 -134.45,-83.7 -179.64,-147.09 -7.66,-10.74 -14.13,-23.05 -14.32,-36.25 -0.24,-15.03 7.56,-28.8 12.93,-42.84 50.81,-133.03 -115.38,-270.55 -80.39,-408.58 15.87,-62.59 69.54,-107.18 120.17,-147.25 17.54,-13.89 35.15,-27.76 52.96,-41.35 1.91,-31.93 16.87,-64.38 49.02,-89.69 41.19,-32.4 95.26,-53.52 118.55,-100.46 35.88,-72.29 -27.86,-160.06 -103.87,-187.2 -76,-27.14 -159.56,-15.4 -240.13,-20.1 -80.56,-4.7 -170.53,-35.09 -201.47,-109.63 -39.62,-95.45 31.75,-228.35 -44.92,-297.64 -45.03,-40.7 -126.27,-38.53 -151.65,-93.67 -16.65,-36.18 1.32,-78.79 24.3,-111.31 96.28,-136.17 291.38,-192.02 445.14,-127.43 92.12,38.7 166.07,113.52 259.66,148.51 123.74,46.27 261.84,16.42 388.78,-20.18 126.93,-36.59 257.88,-80.03 388.33,-59.23 130.46,20.8 257.95,131.87 244.3,263.27 -2.24,21.56 -8.05,43.79 -1.47,64.44 26.88,84.27 186.85,20.03 230.53,96.94 35.27,62.1 -47.64,123.11 -114.92,147.04" /><path
         id="path144"
         style="fill:#97a8b2;fill-opacity:1;fill-rule:nonzero;stroke:none"
         d="m 9770.63,6087.67 c -1035.35,2.57 -1766.7,-0.99 -2628.36,-0.11 -669.83,0.7 -1339.65,1.38 -2009.48,2.07 -41.03,38.76 -48.12,86.68 4.57,125.4 1540.98,2.57 3037.45,-2.81 4626.53,-0.76 11.37,-41.42 11.18,-85.17 6.74,-126.6" /><path
         id="path146"
         style="fill:#97a8b2;fill-opacity:1;fill-rule:nonzero;stroke:none"
         d="m 9770.63,7862.27 c -1035.35,2.57 -1766.7,-0.99 -2628.36,-0.1 -669.83,0.69 -1339.65,1.37 -2009.48,2.06 -41.03,38.76 -48.12,86.68 4.57,125.4 1540.98,2.57 3037.45,-2.81 4626.53,-0.76 11.37,-41.42 11.18,-85.17 6.74,-126.6" /><path
         id="path148"
         style="fill:#ebefeb;fill-opacity:1;fill-rule:nonzero;stroke:none"
         d="m 2558.13,3853.41 c 60.16,-45.07 126.54,-84.8 197.52,-118.21 64.76,-30.48 134.16,-56.2 189.45,-96.99 55.29,-40.79 95.19,-101.66 79.33,-160.61 -11.21,-41.65 -48.78,-76.32 -93.21,-99.58 -144.23,-75.49 -217.67,-209.56 -360.51,-132.38 -145.74,78.75 -387.67,375.76 -398,516.64 -6.98,95.16 48.73,207.4 150.3,261.5 130.89,69.7 145.43,-103.17 235.12,-170.37" /><path
         id="path150"
         style="fill:#dadeda;fill-opacity:1;fill-rule:nonzero;stroke:none"
         d="m 2408.91,4003.85 c -6.84,-33.51 11.32,-67.39 34.6,-92.46 23.27,-25.07 52.02,-44.74 74.03,-70.92 31.01,-36.88 46.94,-86.09 43.41,-134.15 -1.73,-23.53 -5.63,-52.51 13.88,-65.76 17.19,-11.68 40.09,-2.05 59.34,5.78 30.11,12.25 62.26,19.48 94.71,21.29 7.05,0.4 14.71,0.36 20.37,-3.88 5.06,-3.79 7.39,-10.14 9.46,-16.12 9.36,-27.02 18.57,-57.57 5.88,-83.2 -6.53,-13.21 -18.07,-23.09 -28.53,-33.47 -30.45,-30.19 -53.87,-67.44 -67.88,-107.97 42.11,6.18 70.04,46.1 89.56,83.92 19.53,37.82 38.58,80.04 76.48,99.41 33.17,16.96 74.95,11.53 106.6,-8.14 22.55,-14.01 42.84,-35.35 69.34,-36.96 2.68,33.17 -14.84,65.4 -38.99,88.3 -24.14,22.9 -54.42,38.04 -84.22,52.86 -64.71,32.17 -129.42,64.34 -194.14,96.51 -45.4,22.57 -94.07,48.42 -115.17,94.51 -19.8,43.21 7.02,164.47 -43.06,186.41 -40.53,17.76 -117.66,-36.58 -125.67,-75.96" /><path
         id="path152"
         style="fill:#f0e0d1;fill-opacity:1;fill-rule:nonzero;stroke:none"
         d="m 6874.65,3861.01 c -30.4,33.04 -78.23,42.76 -122.95,46.73 -31.03,2.75 -62.2,3.6 -93.34,4.37 -9.97,0.24 -20.18,0.45 -29.62,-2.77 -12.41,-4.22 -22.21,-13.97 -29.92,-24.59 -31.97,-44.04 -33.26,-102.43 -35.04,-156.82 -3.95,-121 -16.49,-241.71 -37.5,-360.93 -14.41,-81.81 -32.87,-164.9 -21.19,-247.14 8.74,-61.45 43.15,-127.72 103.96,-140.17 l 43.44,16.83 c 47.05,0.64 102.05,5.47 127.3,45.16 10.71,16.82 13.87,37.2 16.79,56.92 7.14,48.23 14.29,96.46 21.43,144.69 20.75,140.15 41.53,280.47 73.11,418.58 7.75,33.88 16.17,67.98 16.23,102.72 0.06,34.74 -9.18,70.85 -32.7,96.42" /><path
         id="path154"
         style="fill:#d9924e;fill-opacity:1;fill-rule:nonzero;stroke:none"
         d="m 6812.85,3882.12 c -29.68,30.87 -75.28,38.96 -117.71,44.73 -134.14,18.23 -269.23,29.43 -404.54,33.54 -38.15,1.17 -80.45,0.28 -108.52,-25.58 -20,-18.44 -28.46,-45.94 -35.78,-72.15 -60.21,-215.37 -130.02,-471.04 -120.63,-696.56 7.41,-178.03 411.37,-210.3 546.91,-217.38 34.29,-1.79 72.13,-1.61 98.25,20.66 19.34,16.5 28.17,41.86 36.19,65.98 38.05,114.47 51.95,245.53 90,360 35.52,106.87 43.86,243.16 49.96,355.61 2.52,46.44 -1.9,97.62 -34.13,131.15" /><path
         id="path156"
         style="fill:#d9d9d9;fill-opacity:1;fill-rule:nonzero;stroke:none"
         d="m 5918.52,3581.13 c 32.78,-33.4 65.9,-67.25 89.69,-107.56 18.48,-31.31 29.85,-74.09 6.4,-101.86 -22.05,-26.13 -64.57,-24.08 -94.09,-6.83 -29.51,17.25 -50.4,45.69 -74.47,69.98 -24.54,24.78 -52.99,45.75 -75.23,72.63 -34.75,42 -52.28,117.68 8.54,147.54 51.11,25.1 107.67,-41.81 139.16,-73.9" /><path
         id="path158"
         style="fill:#d9d9d9;fill-opacity:1;fill-rule:nonzero;stroke:none"
         d="m 5388.51,3348.87 c -3.86,-23.12 -6.86,-46.87 -17.19,-67.91 -10.34,-21.04 -29.86,-39.3 -53.24,-40.89 -19.39,-1.31 -38.32,9.25 -50.43,24.44 -12.11,15.19 -18.12,34.46 -20.77,53.7 -10.94,79.72 31.48,156.45 76.98,222.82 16.75,24.43 35.96,49.83 64.07,59.18 18.15,6.05 44.27,1.99 57.27,-13.31 18.92,-22.29 0.93,-43.24 -8.48,-66.59 -22.23,-55.17 -38.43,-112.77 -48.21,-171.44" /><path
         id="path160"
         style="fill:#ededed;fill-opacity:1;fill-rule:nonzero;stroke:none"
         d="m 5092.25,3677.86 c -18.36,33.83 -26.75,72.04 -34.12,109.81 -19.05,97.64 -30.54,206.89 25.08,289.36 46.8,69.38 130.04,102.89 208.52,131.92 136.32,50.44 292.83,98.01 421.55,30.52 75.17,-39.4 126.61,-111.88 171.89,-183.66 46.94,-74.43 92.09,-160.51 73.01,-246.42 -19.63,-88.38 -101.59,-148.4 -183.32,-187.34 -180.49,-85.98 -559.56,-170.95 -682.61,55.81" /><path
         id="path162"
         style="fill:#ededed;fill-opacity:1;fill-rule:nonzero;stroke:none"
         d="m 5374.57,3471.28 c -30.34,-105.17 -28.2,-210.45 -1.76,-310.44 7.22,-27.26 16.91,-55.12 43.67,-75.26 27.68,-20.84 70.7,-31.1 114.29,-37.07 56.92,-7.79 117.35,-9.31 178.08,-4.48 32.02,2.54 64.45,6.91 95.15,15.68 93.46,26.71 156.58,91.34 174.58,153.45 18.01,62.12 -1.56,122.38 -27.12,179.1 -21.15,46.9 -46.42,92.65 -69.16,139.11 -16.9,34.55 -33.86,70.99 -75.55,93.99 -39.08,21.57 -95.76,28.37 -151.79,25.6 -56.01,-2.78 -112.11,-14.33 -167.28,-26.46 -22.17,-4.87 -44.89,-10.06 -63.86,-19.62 -32.14,-16.21 -28.8,-31.85 -29.03,-52.6 -0.29,-26.44 -12.55,-54.44 -20.22,-81" /><path
         id="path164"
         style="fill:#d9d9d9;fill-opacity:1;fill-rule:nonzero;stroke:none"
         d="m 4852.29,4450 c -60.96,25.33 -124.12,47.06 -189.7,54.6 -43.27,4.97 -90.24,2.73 -125.64,-22.64 -50.72,-36.37 -61.18,-111.77 -37.17,-169.39 23.99,-57.61 74.81,-99.78 128.27,-132 39.03,-23.52 81.88,-43.43 127.41,-45.43 40.51,-1.79 80.08,10.65 119.84,18.56 127.75,25.38 264.48,2.57 377.05,-62.91 6.66,-3.87 13.74,-8.02 21.44,-7.68 5.12,0.22 9.91,2.43 14.47,4.75 13.72,7 49.29,22.82 47.85,42.04 -1.23,16.5 -44.18,44.56 -56.22,55.13 -42.39,37.23 -86.93,72.01 -133.25,104.22 -91.96,63.96 -190.91,117.8 -294.35,160.75" /><path
         id="path166"
         style="fill:#d9d9d9;fill-opacity:1;fill-rule:nonzero;stroke:none"
         d="m 5593.15,4346.68 c 49.41,10.34 100.66,-4.82 146.66,-25.58 139.4,-62.89 249.3,-175.31 355.67,-285.19 11.09,-11.46 22.49,-23.37 28.09,-38.31 8.27,-22.04 2.53,-46.89 -6.59,-68.59 -16.26,-38.69 -43.22,-72.82 -77.09,-97.6 -8.68,-6.35 -18.06,-12.21 -28.6,-14.34 -20.69,-4.18 -41.36,6.66 -58.54,18.95 -55.86,39.97 -95.85,97.84 -134.68,154.5 -41.69,60.83 -83.38,121.65 -125.07,182.48 -16.57,24.19 -33.69,48.93 -57.77,65.68 -24.06,16.75 -56.97,24.05 -83,10.56 -33.06,-17.12 -101.93,-72.79 -65.71,9.26 19.24,43.6 59.7,78.36 106.63,88.18" /><path
         id="path168"
         style="fill:#d5afcb;fill-opacity:1;fill-rule:nonzero;stroke:none"
         d="m 5220.31,4163.92 c -104.59,42.39 -199.08,106.47 -302.3,152.08 -103.23,45.6 -222.23,72.01 -328.63,34.42 -2.14,-0.76 -4.35,-1.58 -5.99,-3.15 -8.06,-7.68 4.27,-19.59 14.68,-23.52 90.08,-34.03 183.47,-58.41 276.66,-82.72 53.6,-13.99 107.21,-27.98 160.82,-41.96 32.21,-8.41 64.45,-16.82 96.1,-27.16 25.14,-8.22 49.87,-17.65 74.11,-28.24 17.76,-7.76 52.8,-35.09 71.25,-35.39 13.9,-0.22 21.46,2.59 10.18,22.11 -10.45,18.07 -48.74,26.17 -66.88,33.53" /><path
         id="path170"
         style="fill:#7a7a7a;fill-opacity:1;fill-rule:nonzero;stroke:none"
         d="m 5629.56,3731.74 c 15.32,-1.69 39.91,0.55 49.1,15.33 8.89,14.29 5.81,34.57 -0.46,49.22 -6.39,0.43 -14.24,2.45 -17.84,7.78 -3.93,5.84 1.02,11 6.1,13.57 3.88,1.96 8,3.45 12.25,4.37 2.35,0.51 5.98,1.79 7.9,-0.38 1.99,-2.24 0.14,-6.54 -0.34,-9.02 -0.8,-4.13 -1.21,-8.76 -3.15,-12.56 l -0.01,-2.02 c 3.53,-8.93 8.58,-17.13 15.91,-23.47 10.19,-8.81 33.08,-20.78 40.19,-0.11 0.5,1.45 2.79,1.01 2.37,-0.54 -3.59,-13.24 -16.73,-16.79 -28.88,-12.87 -9.66,3.11 -17.71,9.51 -24.01,17.36 2.07,-13.56 0.64,-28.03 -7.7,-38.16 -11.43,-13.89 -36.25,-17.1 -52.76,-14.34 -3.86,0.65 -2.41,6.25 1.33,5.84" /><path
         id="path172"
         style="fill:#e8e8e8;fill-opacity:1;fill-rule:nonzero;stroke:none"
         d="m 6209.91,3161.4 c 107.67,-2.62 214.81,14.6 320.47,35.44 42.48,8.38 85.34,17.4 128.61,15.85 43.28,-1.56 87.79,-14.88 118.45,-45.45 46.61,-46.48 50.17,-125.67 17.7,-182.93 -32.47,-57.27 -94.49,-93.5 -158.89,-107.08 -64.41,-13.59 -131.41,-6.95 -196.13,5.06 -90.67,16.82 -179.07,43.95 -267.22,71.03 -53.61,16.47 -107.23,32.94 -160.85,49.4 -62.41,19.17 -214.97,96.13 -116.41,172.43 35.48,27.46 83.04,24.54 123.96,15.56 63.87,-14.03 124.38,-27.71 190.31,-29.31" /><path
         id="path174"
         style="fill:#e8e8e8;fill-opacity:1;fill-rule:nonzero;stroke:none"
         d="m 5661.25,2615.64 c 2.15,-62.21 1.99,-129.13 42.5,-179.83 46.11,-57.72 139.24,-77.65 213.78,-52.99 51.67,17.1 97.19,57.6 100.48,106.61 3.03,45.18 -28.57,85.5 -54.65,124.33 -43.48,64.7 -74.95,135.79 -92.76,209.51 -11.58,47.88 -17.47,96.98 -34.14,143.65 -16.66,46.66 -45.93,92.04 -92.81,117.63 -35.57,19.42 -103.77,30.42 -138.65,2.45 -39.03,-31.31 -8.76,-80.74 1.81,-118.8 32.04,-115.37 50.35,-233.77 54.44,-352.56" /><path
         id="path176"
         style="fill:#aa6a64;fill-opacity:1;fill-rule:nonzero;stroke:none"
         d="m 6246.46,3671 c -3.99,0.85 -10.35,0.62 -13.91,1.95 -15.98,5.96 -16.62,16.03 -15.5,31.83 2.64,37 16.07,75.51 22.4,112.17 0.7,4.01 -4.89,5.69 -6.17,1.7 -7.78,-24.16 -14.92,-48.44 -21.86,-72.87 -5.24,-18.42 -16.77,-43.18 -15.58,-62.57 2.03,-32.84 41.02,-25.57 60.97,-39.12 9.42,-6.4 21.26,8.59 12.3,15.96 -7.55,6.2 -12.89,8.86 -22.65,10.95" /><path
         id="path178"
         style="fill:#aa6a64;fill-opacity:1;fill-rule:nonzero;stroke:none"
         d="m 6323.99,3743.77 c -9.74,-25.14 -8.89,-54.41 -16.14,-80.47 -3.87,-13.91 19.69,-16.82 19.18,-2.59 -0.96,27.09 6.68,55.43 3.1,82.23 -0.46,3.48 -4.81,4.26 -6.14,0.83" /><path
         id="path180"
         style="fill:#aa6a64;fill-opacity:1;fill-rule:nonzero;stroke:none"
         d="m 6317.44,3782.55 c -0.83,-1.69 -0.94,-3.71 -0.63,-5.64 l -0.09,-0.18 c -2.75,-8.83 4.93,-18.7 14.31,-16.37 8.76,2.18 13.08,12.83 8.8,20.57 -4.23,7.67 -17.9,10.65 -22.39,1.62" /><path
         id="path182"
         style="fill:#aa6a64;fill-opacity:1;fill-rule:nonzero;stroke:none"
         d="m 6414.8,3741.98 c -4.29,-0.22 -8.58,-0.1 -12.88,0.15 2.42,22.22 3.8,44.36 3.48,65.97 -0.04,2.54 -3.75,3.09 -4.45,0.6 -6.09,-21.45 -11.34,-43.2 -16.3,-65.06 -8.25,0.86 -16.52,1.67 -24.84,1.38 -8.76,-0.3 -8.51,-12.66 0,-13.44 6.84,-0.62 14.28,-1.14 21.65,-2.16 -7.23,-32.64 -14.09,-65.41 -22.29,-97.66 -3.81,-15 19.94,-21.34 23.06,-6.36 6.66,32.13 13.17,65.9 17.61,99.75 3.25,-1.17 6.38,-2.52 9.24,-4.28 16.54,-10.11 24.41,22.1 5.72,21.11" /><path
         id="path184"
         style="fill:#aa6a64;fill-opacity:1;fill-rule:nonzero;stroke:none"
         d="m 6473.13,3705.29 c -2.88,0.68 -5.86,1.27 -8.82,1.88 4.65,24.8 9.65,49.54 14.82,74.17 1.52,7.25 -8.98,10.25 -11.15,3.08 -7.43,-24.62 -14.11,-49.36 -20.48,-74.17 -10.17,1.59 -20.42,2.82 -30.29,3.56 -5.8,0.43 -8.41,-8.72 -3.04,-11.21 9.06,-4.19 18.68,-8.15 28.41,-11.74 -6.34,-25.46 -12.38,-51.01 -18.36,-76.64 -4.09,-17.54 22.42,-21.75 24.71,-3.35 3.06,24.75 7.02,49.42 11.35,74.03 2.22,-0.69 4.47,-1.43 6.66,-2.06 14.47,-4.11 20.76,19.02 6.19,22.45" /><path
         id="path186"
         style="fill:#aa6a64;fill-opacity:1;fill-rule:nonzero;stroke:none"
         d="m 6507.13,3762.16 c -12.82,-48.09 -20.99,-97.26 -33.58,-145.34 -4.79,-18.33 25.34,-22.67 25.63,-3.46 0.75,48.71 10.55,97.82 19.84,145.52 1.51,7.71 -9.82,11.05 -11.89,3.28" /><path
         id="path188"
         style="fill:#aa6a64;fill-opacity:1;fill-rule:nonzero;stroke:none"
         d="m 6555.29,3679.34 c 4.35,5.65 11.7,12.99 19.75,10.86 7.29,1.17 7.25,-2.05 -0.14,-9.66 -4.98,-0.93 -9.94,-0.93 -14.89,-0.01 -2.15,0.25 -3.74,-0.39 -4.88,-1.44 z m 55.25,-34.3 c -13.68,-12.05 -52.83,-26.97 -64.21,-5.11 -4.94,9.49 0.96,27.02 7.18,36.74 -1.38,-4.05 0.85,-9.92 6.5,-10.67 13.31,-1.78 27.44,-3.44 37.09,8.03 7.19,8.53 7.63,20.57 0.01,29.06 -22.01,24.52 -57.33,-1.02 -67.43,-23.57 -5.71,-12.73 -11.82,-30.65 -9.27,-44.79 2.41,-13.4 14.17,-20.41 25.99,-24.8 28.17,-10.48 60.37,-3.1 82.26,16.99 12.23,11.21 -5.82,28.94 -18.12,18.12" /><path
         id="path190"
         style="fill:#aa6a64;fill-opacity:1;fill-rule:nonzero;stroke:none"
         d="m 6302.41,3337.51 c -2.37,-0.04 -14.56,-0.57 -14.34,1.4 0.78,7.16 16.95,9.73 22.1,9.95 8.16,0.33 14.09,-2.44 19.83,-5.73 -8.33,-4.28 -17.22,-5.48 -27.59,-5.62 z m -109.45,76.24 c 0.53,10.61 1.49,22.1 4.63,25.93 31.79,0.64 36.5,-5.64 14.13,-18.82 -6.08,-2.87 -12.36,-5.16 -18.76,-7.11 z m 112.1,-4.86 c -10.01,-4.1 -5.64,-20.58 4.52,-16.42 9.18,3.75 21.08,9.46 30.26,3.26 7.02,-4.73 8.59,-12.08 9.1,-20.21 0.16,-2.65 -0.9,-7.77 -1.46,-12.3 -2.02,1.66 -4.95,3.03 -6.96,4.09 -21.68,11.44 -54.62,9.43 -70.91,-10.46 -5.07,-6.19 -7.36,-12.48 -7.5,-18.33 -12.64,22.81 -28.49,42.33 -47.93,59.07 17.57,8.16 33.07,20.26 35.35,41.29 1.98,18.25 -10.72,35.55 -29.01,38.66 -22.36,3.8 -36.28,-13.43 -40.73,-32.95 -8.4,-36.96 -7.66,-81.03 -7.72,-118.81 0,-4.81 7.57,-6.1 8.59,-1.16 4.27,20.47 7.36,41.14 10.06,61.87 22.53,-18.46 40.23,-40.94 53.34,-67.08 5.79,-11.53 20.82,-5.74 22.93,4.39 5.01,-6.48 13.48,-10.99 23.94,-11.85 24.28,-1.98 52.68,0.62 68.03,21.75 l 1.23,2.06 c 2.92,1.34 5.59,3.28 7.53,6.24 9.3,14.12 4.02,43.3 -4.15,56.95 -13.12,21.96 -38.14,18.28 -58.51,9.94" /><path
         id="path192"
         style="fill:#aa6a64;fill-opacity:1;fill-rule:nonzero;stroke:none"
         d="m 6412.86,3336.66 c 1.22,7.34 3.3,15.13 8.89,18.78 4.45,9.3 6.77,7.39 6.96,-5.71 7.34,-13.37 2.06,-17.72 -15.85,-13.07 z m 3.38,49.2 c 2.4,32.41 4.6,64.83 6.12,97.34 0.46,9.82 -14.41,9.63 -15.15,0 -3.88,-49.81 -9.99,-99.61 -19.33,-148.72 l -0.1,-1.14 -0.34,-2.13 h 0.25 c 0.3,-5.62 4.29,-9.61 8.96,-11.26 0.9,-4.04 3.76,-7.54 9.12,-8.73 39.7,-8.82 80.76,32.03 53.45,70.39 -14.03,19.71 -29.79,16.37 -42.98,4.25" /><path
         id="path194"
         style="fill:#aa6a64;fill-opacity:1;fill-rule:nonzero;stroke:none"
         d="m 6542.98,3318.43 c -10.97,-7.81 -22.48,-9.64 -34.53,-5.54 2.48,9.87 5.16,21.51 10.6,27.27 31.45,5.41 39.43,-1.84 23.93,-21.73 z m -26.22,53.95 c -1.26,-0.69 -2.27,-1.6 -3.42,-2.38 3.17,25.23 6.42,50.45 8.89,75.75 0.98,10.13 -14.72,9.99 -15.78,0 -4.86,-45.74 -11.24,-92.14 -24.07,-136.43 -2.47,-8.51 3.59,-14.03 10.26,-14.64 1.31,-3.16 3.97,-5.81 8.37,-6.97 23.67,-6.26 49.48,-2.74 65.12,17.86 12.44,16.37 14.02,39.58 0.68,55.88 -12.09,14.79 -32.85,20.33 -50.05,10.93" /><path
         id="path196"
         style="fill:#aa6a64;fill-opacity:1;fill-rule:nonzero;stroke:none"
         d="m 6625.02,3358.2 c -0.76,-22.56 -5.52,-43.59 -13.59,-64.59 -5.74,-14.9 19.69,-22.46 24.25,-6.68 6.68,23.12 9.56,47.23 9.03,71.27 -0.3,12.69 -19.27,12.67 -19.69,0" /><path
         id="path198"
         style="fill:#aa6a64;fill-opacity:1;fill-rule:nonzero;stroke:none"
         d="m 6622.31,3385.86 c 12.67,0 12.69,19.69 0,19.69 -12.66,0 -12.69,-19.69 0,-19.69" /><path
         id="path200"
         style="fill:#aa6a64;fill-opacity:1;fill-rule:nonzero;stroke:none"
         d="m 6727.01,3398.24 c -8.01,3.57 -16.56,5.91 -25.3,7.12 2.34,21.57 4.03,43.28 4.71,65.35 0.26,8.76 -12.66,8.47 -13.44,0 -1.97,-21.42 -4.47,-42.98 -7.77,-64.46 -9.45,-0.21 -18.86,-1.64 -27.8,-4.34 -11.49,-3.46 -6.73,-20.5 4.94,-17.93 6.85,1.51 13.26,2.02 19.45,1.71 -5.26,-29.42 -12.18,-58.52 -21.54,-86.66 -5.24,-15.78 21.78,-22.79 24.56,-6.77 5.27,30.31 10.27,60.22 14.16,90.28 5.04,-1.56 10.08,-3.58 15.26,-6.16 14.71,-7.31 27.46,15.32 12.77,21.86" /><path
         id="path202"
         style="fill:#aa6a64;fill-opacity:1;fill-rule:nonzero;stroke:none"
         d="m 6809.28,3840.2 c -18.44,1.82 -31.89,-12.18 -40.34,-27.18 -10.78,-8.54 -16.95,-28.36 -20.23,-48.6 -2.55,-6.85 -5.22,-13.66 -7.83,-20.49 -2.72,0.69 -5.37,1.45 -8.25,1.85 -6.12,0.86 -11.77,0.78 -17.04,0.08 -0.13,16.18 1.68,32.28 0.97,48.52 -0.87,19.98 0.44,51.43 -15.6,66.91 -29.99,28.95 -48.06,-15.8 -45.99,-40.75 2.39,-28.78 12.64,-62.88 30.06,-89.91 -1.5,-0.28 -2.94,-1.1 -3.94,-2.94 -0.98,-1.87 -1.76,-3.85 -2.65,-5.78 -8.87,-13.84 -12.45,-31.72 -10.35,-48.83 0.31,-15.87 4.04,-31.61 12.17,-45.53 17.09,-29.22 49.21,-38.57 78.94,-21.95 44.08,24.65 47.06,80.53 19.8,114.06 9.16,14.79 19.88,33.47 25.2,50.72 24.45,30.15 44.96,65.9 5.08,69.82" /><path
         id="path204"
         style="fill:#c7b299;fill-opacity:1;fill-rule:nonzero;stroke:none"
         d="m 3778.37,5193.82 c 2.43,5.72 7.53,9.79 12.43,13.62 56.95,44.43 113.92,88.86 170.87,133.29 32.25,25.15 64.59,50.39 93.51,79.32 34.01,34.03 62.89,72.76 92.53,110.66 11.45,14.62 27.68,30.79 45.55,25.77 16.93,-4.76 23.05,-25.59 23.57,-43.17 1.74,-58.71 -27.32,-114.29 -63.58,-160.51 -78.09,-99.55 -194.17,-168.16 -318.7,-189.92 -20,-3.49 -74.02,-11.07 -56.18,30.94" /><path
         id="path206"
         style="fill:#ebefeb;fill-opacity:1;fill-rule:nonzero;stroke:none"
         d="m 5243.28,5297.01 c -13.93,12.26 -34.89,15.65 -52.16,20.39 -37.01,10.14 -74.48,18.77 -112.08,26.44 -146.85,29.94 -296.37,33.86 -444.26,55.9 -152.56,22.73 -289.99,82.08 -427.7,148.03 -1.26,1.66 -3.25,2.65 -5.19,2.49 -4.61,2.21 -9.22,4.42 -13.83,6.64 l -8.42,1.56 c -63.22,-103.14 -137.93,-225.44 -235.28,-297.92 -25.15,-18.72 -51.3,-36.06 -78.27,-52.05 -16.16,-9.59 -42.55,-17.87 -55.18,-31.91 -25.85,-28.75 10.64,-60.1 31.06,-79.68 84.99,-81.45 203.37,-106.58 311.68,-141.59 60.25,-19.47 116.97,-47.8 177,-67.57 62.75,-20.67 128.55,-29.46 193.72,-38.67 143.63,-20.29 287.27,-40.47 430.92,-60.66 84.57,-11.88 242.32,-64.64 302.09,25.81 28.05,42.44 26.05,103.84 25.13,151.94 -1.22,64.07 -7.81,128.1 -12.59,191.98 -3,40.19 7.35,108.95 -26.64,138.87" /><path
         id="path208"
         style="fill:#bcbcbc;fill-opacity:1;fill-rule:nonzero;stroke:none"
         d="m 4111.7,5355 c -13.41,-33.77 -31.22,-60.58 -54.33,-88.32 -10.96,-13.16 -18.88,-42.1 -37.8,-36.69 -1.06,0.31 -2.33,0.2 -3.15,-0.62 -16.54,-16.51 -10.03,-43.33 -21.98,-62.27 -2.31,-7.33 -7.8,-11.5 -16.48,-12.49 -1.4,0.49 -2.79,0.98 -4.2,1.48 l -1.57,-0.1 c -5.4,-2.61 -28.14,-22.01 -27.34,-22.73 -1.53,1.37 -3.71,0.34 -3.51,-1.75 -5.71,-7.15 -11.43,-14.3 -17.15,-21.46 -2.11,-0.29 -1.44,-3.44 0.64,-3.22 15.08,1.69 13.13,9.75 20.96,18.71 1.42,1.63 3.37,-1.38 6.76,1.58 4.3,3.76 4.8,6.13 8.88,10.11 35.11,34.28 8.26,6.62 19.44,12.32 l 1.03,-0.07 c 10.67,5.6 15.97,12.96 20.21,24.93 3.36,9.46 4.06,19.89 7.95,29.14 2.48,5.91 6.45,14.25 13.69,16.01 1.23,0.29 3.42,-4.18 5.12,-3.93 9.88,1.46 10.29,1.83 14.79,11.73 10.94,24.02 27.16,40.68 42.38,61.89 13.89,19.37 24.91,40.78 32.38,63.42 1.43,4.37 -5.04,6.56 -6.72,2.33" /><path
         id="path210"
         style="fill:#bcbcbc;fill-opacity:1;fill-rule:nonzero;stroke:none"
         d="m 4193.02,5303.61 c -16.38,-17.99 -32.09,-35.96 -51.6,-50.7 -15.77,-11.9 -25.65,-23.48 -35.61,-40.92 -9.81,-17.17 -18.1,-35.23 -24.67,-53.88 -2.66,-7.59 -20.32,-50.83 -13.39,-58.35 -2.58,2.81 -7.46,0.5 -6.71,-3.33 3.3,-16.91 -8.18,-14.59 -15.99,-24.56 -2.77,-3.54 -4.22,-7.24 -5.07,-11.16 l -2.13,3.57 c -0.9,2.78 -5.64,3.17 -5.63,-0.35 0.01,-3.35 0.01,-6.7 0.01,-10.05 0.01,-1.8 2.84,-2.69 3.33,-0.71 0.83,-1.16 2.05,-2.62 4.13,-5.27 1.88,-2.39 5.85,-0.8 6.05,2.05 1.11,14.78 15.37,16.64 21.77,26.62 3.16,4.93 2.83,11.11 1.92,16.86 8.75,6.53 7.77,20.04 10.27,30.06 6.29,25.14 15.63,49.55 27.8,72.43 11.6,21.81 24.48,37.63 44.09,52.31 18.51,13.86 34.21,31.09 49.13,48.65 3.75,4.42 -3.76,11.06 -7.7,6.73" /><path
         id="path212"
         style="fill:#bcbcbc;fill-opacity:1;fill-rule:nonzero;stroke:none"
         d="m 4177.59,5331.9 c -13.21,-22.52 -29.32,-42.66 -48.85,-60.08 -12.88,-11.51 -23.69,-20.29 -28.76,-37.29 -2.46,-8.25 -1.75,-19.27 -6.44,-26.47 -6.6,-10.17 -19.71,-12.34 -27.97,-18.89 -15.32,-12.14 -32.65,-56.67 -54.2,-56.66 -1.69,0 -3.78,-0.94 -4.22,-2.78 -2.13,-9.04 -10.16,-43.84 -21.18,-34.7 -2.15,1.77 -5.61,-0.21 -5.71,-2.79 0.07,1.87 -5.3,-19.72 -5.47,-20.63 -0.71,-3.49 5.3,-4.74 6.14,-1.26 3.43,14.15 4.62,11.46 5.55,14.31 l 2.24,-2.06 c 1.87,-1.68 4.58,-1.81 6.14,0.42 7.39,10.47 10.76,26.86 18.21,36.29 5.05,6.37 12.96,8.2 19.11,13.93 10.2,9.5 16.47,23.25 25.38,33.93 9.95,11.96 19.68,12.46 31.43,20 8.43,5.41 12.72,15.22 15.57,24.35 6.08,19.45 6.12,29.8 22.27,45.58 22.66,22.15 42.86,41.5 59.85,68.72 3.74,5.98 -5.54,12.14 -9.09,6.08" /><path
         id="path214"
         style="fill:#c7b299;fill-opacity:1;fill-rule:nonzero;stroke:none"
         d="m 5317.44,5297.17 c -16.51,12.84 -74.12,15.56 -94.96,19.99 -37.93,8.08 -75.89,16.07 -113.85,24.01 -311.11,65.04 -599.25,173.25 -913.69,219.58 -1.64,0.24 -3.09,0.13 -4.41,-0.18 l -0.51,-0.09 c -5.2,-1.51 -7.66,-6.93 -7.14,-12.2 -49.47,-103.98 -98.99,-285.92 -116.97,-394.87 -10.07,-60.98 -15.11,-122.81 -14.46,-184.62 0.32,-31.02 -6.1,-78.06 24.99,-96.75 22.98,-13.82 59.32,-14.58 84.76,-19.48 31.6,-6.08 63.2,-12.17 94.8,-18.29 69.51,-13.46 138.99,-27.03 208.46,-40.71 133.43,-26.28 269.33,-48.11 394.6,-103.24 96.6,-42.5 194.95,-103.02 304.24,-99.47 33.13,1.08 75.74,5.07 95.92,35.51 27.24,41.09 25.97,107.99 33.92,155.37 22.25,132.51 50.73,271.34 53.11,405.96 0.57,31.68 -0.8,87.72 -28.81,109.48" /><path
         id="path216"
         style="fill:#ad9c89;fill-opacity:1;fill-rule:nonzero;stroke:none"
         d="m 4855.34,5236 c -0.48,5.63 -9.43,5.52 -8.75,0 4.03,-32.49 -9.83,-64.86 -18.73,-95.61 -7,-24.23 2.98,-43.41 -0.11,-68.21 -1.71,-13.74 -5.39,-28.26 -5.2,-42.1 0.17,-13.18 2.46,-22.48 -2.62,-35.68 -1.89,-4.92 -4.82,-8.36 -5.87,-13.94 -2.48,-13.2 4.52,-29.72 -8.58,-39.95 -1.69,-1.33 0.58,-4.32 2.32,-3.01 16.5,12.5 8.13,38.45 17.07,55.71 2.64,5.1 5.68,7.55 6.5,13.41 0.77,5.47 -2.07,11.19 -2.76,16.58 -1.53,12.04 1.18,23.65 2.96,35.6 1.94,12.85 5.83,27.43 3.88,40.45 -2.33,15.61 -5.64,23.63 -0.82,39.27 9.77,31.71 23.62,63.73 20.71,97.48" /><path
         id="path218"
         style="fill:#ad9c89;fill-opacity:1;fill-rule:nonzero;stroke:none"
         d="m 4916.33,5204.99 c -13.17,-9.75 -14.03,-22.83 -12.42,-38.45 2.45,-24 -1.96,-34.61 -10.21,-56.5 -3.95,-10.49 -6.32,-20.77 -7.42,-31.9 -7.1,-71.61 -11.29,-142.41 -24.08,-213.47 -1.05,-5.8 7.84,-8.29 8.89,-2.45 10.32,57.3 17.62,115.1 21.36,173.21 2,31.01 3.42,56.48 14.81,85.71 4.08,10.47 6.66,19.5 6.06,30.73 -0.88,16.3 -10.57,35.91 5.81,48.33 2.8,2.13 0.09,6.93 -2.8,4.79" /><path
         id="path220"
         style="fill:#ad9c89;fill-opacity:1;fill-rule:nonzero;stroke:none"
         d="m 5011.36,5208.26 c -8.14,-68.7 -17.03,-136.92 -42.22,-201.78 -10.72,-27.59 -20.33,-54.19 -22.35,-83.93 -2.37,-34.68 1.12,-68.71 -8.2,-102.7 -1.59,-5.83 7.35,-8.28 9.05,-2.49 8.43,28.81 7.33,57.98 7.97,87.68 0.85,39.26 12.38,71.32 25.96,107.54 23.52,62.7 30.93,129.5 37.76,195.68 0.52,5.12 -7.38,5.01 -7.97,0" /><path
         id="path222"
         style="fill:#ad9c89;fill-opacity:1;fill-rule:nonzero;stroke:none"
         d="m 5087.51,5196.35 c 1.78,2.56 -2.3,4.8 -4.11,2.41 -18.19,-24.04 -12.3,-51.93 -10.53,-80.11 2.52,-40.08 -15.71,-69.77 -33.42,-104.09 -32.39,-62.79 -33.35,-141.84 -39.36,-210.95 -0.56,-6.4 9.07,-6.14 9.84,0 9.5,75.36 8.16,152.06 44.65,220.59 11.95,22.45 24.69,45.53 26.42,71.46 2.23,33.72 -14.56,70.33 6.51,100.69" /><path
         id="path224"
         style="fill:#ad9c89;fill-opacity:1;fill-rule:nonzero;stroke:none"
         d="m 5123.78,4982.75 c 21.05,71.91 53.7,145.11 39.64,221.45 -0.9,4.85 -8.24,2.78 -7.38,-2.04 14.75,-82.77 -26.49,-166.25 -48.85,-244.24 -10.86,-37.85 -20.98,-75.92 -30.77,-114.06 -3.1,-12.04 -7.44,-24.66 -5.39,-37.26 2.84,-17.49 17.5,-29.78 16.15,-48.41 -0.45,-6.13 9.06,-6.08 9.53,0 1,13.12 -3.98,21.76 -9.57,33.26 -11.18,22.99 -2.85,44.85 3.19,68.18 10.68,41.16 21.5,82.3 33.45,123.12" /><path
         id="path226"
         style="fill:#ad9c89;fill-opacity:1;fill-rule:nonzero;stroke:none"
         d="m 5219.12,5146.66 c -8.1,-27.35 -4.58,-54.65 -6.83,-82.69 -2.61,-32.46 -16.79,-62.03 -25.22,-93.12 -15.38,-56.77 -18.94,-116.09 -23.12,-174.49 -0.5,-6.94 10.55,-7.01 10.85,0 2.62,60.87 5.95,122.21 22.96,181.08 7.34,25.39 18.2,49.93 21.62,76.33 3.96,30.58 -2.34,60.95 5.99,91.16 1.11,4.04 -5.07,5.73 -6.25,1.73" /><path
         id="path228"
         style="fill:#e2cfc5;fill-opacity:1;fill-rule:nonzero;stroke:none"
         d="m 4677.14,4899.1 c -21.14,-4.77 -43.25,-10.03 -59.51,-24.37 -25.96,-22.92 -29.41,-61.49 -31.04,-96.08 -0.92,-19.57 -1.83,-39.13 -2.76,-58.7 -0.82,-17.4 -1.56,-35.33 4.37,-51.71 12.28,-33.9 48.69,-51.53 73.66,-77.56 14.44,-15.06 25.55,-33.6 42.62,-45.59 35.81,-26.86 78.07,-3.08 115.6,-18.58 35.88,-14.83 60.11,-63.41 100.33,-67.52 16.75,-1.71 32.08,8.62 45.73,18.47 9.9,7.14 20.23,14.79 25.21,25.93 7.67,17.16 0.56,36.97 -6.55,54.37 -27.15,66.47 -54.31,132.95 -81.46,199.42 -8.64,21.15 -17.41,42.53 -30.74,61.09 -16.56,23.06 -39.44,40.74 -62.6,57.17 -17.71,12.56 -36.36,24.85 -57.57,29.46 -24.8,5.39 -50.53,-0.21 -75.29,-5.8" /><path
         id="path230"
         style="fill:#491e1e;fill-opacity:1;fill-rule:nonzero;stroke:none"
         d="m 4016.79,3439.07 c 65.09,-41.56 146.73,-47.15 223.8,-42.23 80.12,5.11 159.23,20.19 238.1,35.24 294.44,56.17 589.47,112.5 876.55,198.7 89.27,26.81 187.48,65.04 224.69,150.49 25.28,58.03 15.41,126.55 -11.61,183.78 -27.02,57.23 -69.56,105.45 -111.54,152.82 -106.76,120.48 -213.52,240.97 -320.28,361.45 -41.89,47.28 -87.19,96.76 -147.96,113.98 -71.54,20.27 -154.82,-14.39 -190.85,-79.42 -2.96,-5.34 -5.68,-11.07 -5.81,-17.18 -0.27,-11.75 8.83,-21.36 17.29,-29.52 85.41,-82.34 170.82,-164.68 256.23,-247.01 36.59,-35.27 74.14,-71.94 93.64,-118.87 19.5,-46.92 16.21,-107.26 -21.48,-141.33 -29.28,-26.46 -71.46,-31.58 -110.72,-35.46 -199.2,-19.67 -398.39,-39.34 -597.59,-59.02 -135.27,-13.36 -283.48,-30.07 -398.31,-109.47 -116.58,-80.62 -153.44,-228.01 -14.15,-316.95" /><path
         id="path232"
         style="fill:#999999;fill-opacity:1;fill-rule:nonzero;stroke:none"
         d="m 2805.34,10656.1 c 0.01,-2.4 -0.03,-5 -1.74,-7 -2.66,-3.1 -8.21,-3.7 -13.06,-3.9 -26.87,-1.4 -53.73,-2.8 -80.61,-4.2 -69.37,-3.5 -139.58,-7 -208.05,2.6 -3.04,0.4 -6.27,0.9 -8.5,2.6 -2.37,1.8 -3.1,4.5 -3.63,7 -2.27,10.7 -3.25,21.6 -2.92,32.5 0.18,6.3 1.35,13.4 7.83,17.1 4.11,2.3 9.47,2.8 14.56,3.1 75.32,5.1 150.99,7.1 226.6,6 16.14,-0.2 51.27,2.5 64.21,-6.7 12.32,-8.8 5.24,-37 5.31,-49.1" /><path
         id="path234"
         style="fill:#999999;fill-opacity:1;fill-rule:nonzero;stroke:none"
         d="m 2666.82,10822.8 c -16.89,-1.3 -29.1,-16.5 -43.98,-19.8 -2.76,-23.9 -2.75,-34.9 -2.55,-63.8 4.41,-614.5 -19.04,-1041.82 -4.99,-1653.97 9.15,-47.48 34.41,-47.8 43.27,0.91 8.87,48.71 4.94,131.35 4.74,190.68 -1.25,382.53 -0.81,-9.29 0.23,373.28 0.5,185.26 8,988.7 3.28,1172.7" /><path
         id="path236"
         style="fill:#4d4d4d;fill-opacity:1;fill-rule:nonzero;stroke:none"
         d="m 2078.03,8471.19 c 17.79,58.34 42.01,114.57 75.65,162.89 55.2,79.28 147.13,170.45 227.95,211.83 119.74,61.31 237.96,60.76 368.39,45.11 130.44,-15.64 258.73,-87.32 335.36,-209.23 36.28,-57.72 60.14,-124.55 78.07,-192.66 30.27,-114.97 44.47,-235.49 41.87,-355.55 -0.2,-9.63 -0.6,-19.61 -4.46,-28.16 -7.15,-15.79 -23.68,-22.13 -38.65,-26.84 -295.41,-92.79 -609.08,-108.45 -910.39,-45.45 -61.36,12.83 -196.93,36.48 -212.31,123.12 -7.17,40.36 0.92,94.29 4.23,134.64 5.04,61.39 16.53,122.08 34.29,180.3" /><path
         id="path238"
         style="fill:#4d4d4d;fill-opacity:1;fill-rule:nonzero;stroke:none"
         d="m 2548.82,8842.55 c 48.15,-0.05 82.89,1.53 125.32,1.73 7.76,2.67 7.7,3.92 6.97,7.2 -15.27,69.66 46.3,205.53 3.54,275.03 -26.31,5.49 -86.74,3.64 -111.8,-1.78 -25.06,-5.42 -25.08,-12.64 -24.26,-19.37 5.26,-43.34 5.71,-86.68 4.42,-130.01 -0.62,-20.98 -18.47,-111.91 -4.19,-132.8" /><path
         id="path240"
         style="fill:#4d4d4d;fill-opacity:1;fill-rule:nonzero;stroke:none"
         d="m 2517.81,8822.56 c 81.59,-0.25 91.67,0.45 163.57,0.37 38.6,3.32 73.83,3.25 73.83,3.25 -6.74,52.26 5.78,88.1 -8.55,159.24 -44.6,3.28 -146.99,2.49 -189.42,-0.51 -42.45,-3.01 -55.83,-5.62 -54.43,-9.5 9.11,-24.98 7.71,-45.19 5.73,-70.13 -0.96,-12.08 -15.02,-70.62 9.27,-82.72" /><path
         id="path242"
         style="fill:#999999;fill-opacity:1;fill-rule:nonzero;stroke:none"
         d="m 2516.52,8154.35 c 78.19,1.03 156.4,0.95 234.59,-0.24 142.23,-2.16 286.49,-8.35 421.98,-51.66 -27.18,-23.63 -63.93,-32.22 -99.09,-40.03 -30.14,-6.7 -60.29,-13.41 -90.61,-19.31 -162.29,-31.59 -329.05,-39.74 -493.7,-24.84 -82.7,7.48 -164.87,20.78 -245.68,39.85 -20.47,4.83 -101.33,13.72 -108.78,36.28 -6.9,20.92 78.4,33.32 96.09,36.86 93.78,18.78 189.84,21.83 285.2,23.09" /><path
         id="path244"
         style="fill:#ffffff;fill-opacity:1;fill-rule:nonzero;stroke:none"
         d="m 2531.1,8063.84 c 31.16,-18.54 68.39,-23.21 104.46,-26.81 27.9,-2.78 56.25,-5.15 83.82,-0.1 27.58,5.06 54.72,18.46 70.67,41.53 14.71,21.29 18.38,48.07 21.63,73.74 -80.3,7.13 -161.04,9.41 -241.61,6.83 -26.12,-0.84 -84.67,9.63 -87.52,-22.65 -2.54,-28.73 26.16,-59.21 48.55,-72.54" /><path
         id="path246"
         style="fill:#4d4d4d;fill-opacity:1;fill-rule:nonzero;stroke:none"
         d="m 2984.75,10734.5 c 0.03,-5.2 -0.07,-10.7 -3.7,-15 -5.7,-6.7 -17.53,-7.9 -27.88,-8.4 -57.31,-2.9 -114.63,-5.9 -171.95,-8.8 -148.02,-7.6 -297.76,-15 -443.84,5.4 -6.5,0.9 -13.39,2 -18.14,5.6 -5.06,3.8 -6.6,9.6 -7.75,15 -4.82,22.8 -6.91,46.1 -6.23,69.2 0.39,13.4 2.89,28.6 16.7,36.5 8.77,5 20.23,6 31.08,6.7 160.68,10.8 322.11,15.1 483.4,12.8 34.44,-0.5 109.37,5.3 136.99,-14.4 26.28,-18.7 11.18,-78.9 11.32,-104.6" /></g></g></svg>